<svg width="5" height="7" viewBox="0 0 5 7" fill="none" xmlns="http://www.w3.org/2000/svg">
<path d="M4.71891 0.422217L4.73075 0.430991C4.80554 0.485271 4.86474 0.549965 4.90496 0.621313C4.94518 0.69266 4.96564 0.769191 4.96506 0.846538C4.96448 0.923884 4.94288 1.00046 4.90158 1.07181C4.86029 1.14316 4.80012 1.20785 4.72452 1.26213L2.31237 3.00315C2.27664 3.02879 2.2482 3.05936 2.22868 3.09307C2.20916 3.12678 2.19898 3.16298 2.19871 3.19953C2.19843 3.23608 2.20807 3.27227 2.22708 3.30598C2.24609 3.3397 2.27408 3.37026 2.30943 3.39591L4.69546 5.13731C4.77013 5.19168 4.82926 5.2564 4.8694 5.32777C4.90955 5.39915 4.92995 5.47575 4.92937 5.5531C4.92879 5.63045 4.90724 5.70705 4.86603 5.77842C4.82481 5.84979 4.76471 5.91452 4.68923 5.96889L4.67726 5.97722C4.52378 6.08769 4.31742 6.14966 4.10288 6.14966C3.88835 6.14966 3.68292 6.08769 3.5311 5.97722L0.227711 3.56708C0.162071 3.51932 0.110126 3.46241 0.074831 3.39969C0.0395365 3.33697 0.0216269 3.26968 0.0221366 3.20171C0.0226464 3.13373 0.041565 3.06644 0.0778002 3.00373C0.114035 2.94101 0.166834 2.8841 0.233191 2.83633L3.57275 0.422653C3.72629 0.31228 3.93263 0.250365 4.14712 0.250365C4.36161 0.250365 4.56702 0.31228 4.71891 0.422653L4.71891 0.422217Z" fill="#9F9CCE" fill-opacity="0.46"/>
</svg>
