<svg width="5" height="7" viewBox="0 0 5 7" fill="none" xmlns="http://www.w3.org/2000/svg">
<path d="M4.71891 0.777936L4.73075 0.785984C4.80554 0.835771 4.86474 0.89511 4.90496 0.960551C4.94518 1.02599 4.96564 1.09619 4.96506 1.16713C4.96448 1.23807 4.94288 1.30832 4.90158 1.37376C4.86029 1.4392 4.80012 1.49854 4.72452 1.54832L2.31237 3.14521C2.27664 3.16873 2.2482 3.19677 2.22868 3.22769C2.20916 3.25862 2.19898 3.29181 2.19871 3.32534C2.19843 3.35886 2.20807 3.39206 2.22708 3.42298C2.24609 3.4539 2.27408 3.48194 2.30943 3.50546L4.69546 5.1027C4.77013 5.15257 4.82926 5.21194 4.8694 5.2774C4.90955 5.34287 4.92995 5.41313 4.92937 5.48407C4.92879 5.55502 4.90724 5.62528 4.86603 5.69074C4.82481 5.75621 4.76471 5.81557 4.68923 5.86544L4.67726 5.87309C4.52378 5.97441 4.31742 6.03125 4.10288 6.03125C3.88835 6.03125 3.68292 5.97441 3.5311 5.87309L0.227711 3.66246C0.162071 3.61865 0.110126 3.56645 0.074831 3.50893C0.0395365 3.4514 0.0216269 3.38968 0.0221366 3.32734C0.0226463 3.26499 0.041565 3.20327 0.0778002 3.14574C0.114035 3.08822 0.166834 3.03602 0.233191 2.99221L3.57275 0.778336C3.72629 0.6771 3.93263 0.62031 4.14712 0.62031C4.36161 0.62031 4.56702 0.6771 4.71891 0.778336L4.71891 0.777936Z" fill="#9F9CCE" fill-opacity="0.46"/>
</svg>
