<svg width="5" height="8" viewBox="0 0 5 8" fill="none" xmlns="http://www.w3.org/2000/svg">
<path d="M4.71891 0.303895L4.73075 0.31434C4.80554 0.378956 4.86474 0.455967 4.90496 0.540899C4.94518 0.625831 4.96564 0.716933 4.96506 0.809006C4.96448 0.901079 4.94288 0.99224 4.90158 1.07717C4.86029 1.1621 4.80012 1.23911 4.72452 1.30373L2.31237 3.37623C2.27664 3.40675 2.2482 3.44314 2.22868 3.48327C2.20916 3.52341 2.19898 3.56649 2.19871 3.61C2.19843 3.65351 2.20807 3.69659 2.22708 3.73672C2.24609 3.77686 2.27408 3.81324 2.30943 3.84377L4.69546 5.91673C4.77013 5.98145 4.82926 6.0585 4.8694 6.14346C4.90955 6.22842 4.92995 6.31961 4.92937 6.41168C4.92879 6.50376 4.90724 6.59494 4.86603 6.6799C4.82481 6.76487 4.76471 6.84192 4.68923 6.90664L4.67726 6.91656C4.52378 7.04806 4.31742 7.12183 4.10288 7.12183C3.88835 7.12183 3.68292 7.04806 3.5311 6.91656L0.227711 4.04753C0.162071 3.99068 0.110126 3.92293 0.074831 3.84827C0.0395365 3.77361 0.0216269 3.69351 0.0221366 3.61259C0.0226464 3.53168 0.041565 3.45158 0.0778002 3.37692C0.114035 3.30226 0.166834 3.23451 0.233191 3.17766L3.57275 0.304415C3.72629 0.173027 3.93263 0.0993234 4.14712 0.0993234C4.36161 0.0993235 4.56702 0.173028 4.71891 0.304415L4.71891 0.303895Z" fill="#9F9CCE" fill-opacity="0.46"/>
</svg>
