<svg width="5" height="9" viewBox="0 0 5 9" fill="none" xmlns="http://www.w3.org/2000/svg">
<path d="M4.71891 0.849852L4.73075 0.861183C4.80554 0.93128 4.86474 1.01483 4.90496 1.10696C4.94518 1.1991 4.96564 1.29793 4.96506 1.39782C4.96448 1.4977 4.94288 1.5966 4.90158 1.68873C4.86029 1.78087 4.80012 1.86442 4.72452 1.93451L2.31237 4.18284C2.27664 4.21596 2.2482 4.25543 2.22868 4.29897C2.20916 4.34251 2.19898 4.38924 2.19871 4.43644C2.19843 4.48364 2.20807 4.53038 2.22708 4.57392C2.24609 4.61746 2.27408 4.65693 2.30943 4.69005L4.69546 6.93888C4.77013 7.00909 4.82926 7.09267 4.8694 7.18484C4.90955 7.27701 4.92995 7.37594 4.92937 7.47582C4.92879 7.57571 4.90724 7.67463 4.86603 7.7668C4.82481 7.85897 4.76471 7.94256 4.68923 8.01277L4.67726 8.02354C4.52378 8.16619 4.31742 8.24622 4.10288 8.24622C3.88835 8.24622 3.68292 8.16619 3.5311 8.02354L0.227711 4.9111C0.162071 4.84942 0.110126 4.77592 0.074831 4.69493C0.0395365 4.61394 0.0216269 4.52704 0.0221366 4.43926C0.0226463 4.35148 0.041565 4.26458 0.0778002 4.18359C0.114035 4.1026 0.166834 4.0291 0.233191 3.96742L3.57275 0.850415C3.72629 0.707881 3.93263 0.627924 4.14712 0.627924C4.36161 0.627924 4.56702 0.707881 4.71891 0.850416L4.71891 0.849852Z" fill="#34B25F"/>
</svg>
