<svg width="5" height="6" viewBox="0 0 5 6" fill="none" xmlns="http://www.w3.org/2000/svg">
<path d="M4.71891 0.343887L4.73075 0.35131C4.80554 0.397233 4.86474 0.451966 4.90496 0.512328C4.94518 0.572689 4.96564 0.637437 4.96506 0.702874C4.96448 0.768311 4.94288 0.8331 4.90158 0.893461C4.86029 0.953823 4.80012 1.00856 4.72452 1.05448L2.31237 2.52742C2.27664 2.54912 2.2482 2.57498 2.22868 2.6035C2.20916 2.63202 2.19898 2.66264 2.19871 2.69356C2.19843 2.72449 2.20807 2.75511 2.22708 2.78363C2.24609 2.81215 2.27408 2.83801 2.30943 2.85971L4.69546 4.33298C4.77013 4.37898 4.82926 4.43373 4.8694 4.49412C4.90955 4.5545 4.92995 4.61931 4.92937 4.68475C4.92879 4.75019 4.90724 4.81499 4.86603 4.87538C4.82481 4.93576 4.76471 4.99052 4.68923 5.03652L4.67726 5.04357C4.52378 5.13703 4.31742 5.18945 4.10288 5.18945C3.88835 5.18945 3.68292 5.13703 3.5311 5.04357L0.227711 3.00452C0.162071 2.96412 0.110126 2.91597 0.074831 2.86291C0.0395365 2.80985 0.0216269 2.75292 0.0221366 2.69541C0.0226463 2.6379 0.041565 2.58097 0.0778002 2.52791C0.114035 2.47485 0.166834 2.4267 0.233191 2.38629L3.57275 0.344256C3.72629 0.250878 3.93263 0.198496 4.14712 0.198496C4.36161 0.198496 4.56702 0.250878 4.71891 0.344256L4.71891 0.343887Z" fill="#9F9CCE" fill-opacity="0.46"/>
</svg>
