<svg width="8" height="8" viewBox="0 0 8 8" fill="none" xmlns="http://www.w3.org/2000/svg">
<g clip-path="url(#clip0_57_19693)">
<path d="M3.71837 4.93212C3.99876 5.21797 4.22471 5.4512 4.45385 5.68087C4.96837 6.19711 5.4836 6.71299 6.00025 7.22709C6.36462 7.58938 6.90902 7.59116 7.25559 7.23491C7.59931 6.88187 7.57654 6.34217 7.21111 5.97952C6.49164 5.26561 5.77609 4.54814 5.05911 3.83209C5.03847 3.81147 5.02068 3.78801 4.9762 3.73717C5.14664 3.57326 5.31779 3.41327 5.48396 3.24831C6.06822 2.66736 6.65141 2.08535 7.23353 1.50263C7.57868 1.15705 7.59006 0.611661 7.26235 0.268215C6.9293 -0.0809197 6.37244 -0.0926524 6.01698 0.257905C5.31245 0.952975 4.6154 1.65516 3.91728 2.35627C3.86782 2.40604 3.8333 2.47075 3.77993 2.54541C3.51306 2.28232 3.28142 2.05655 3.05299 1.82795C2.54167 1.31704 2.03249 0.80365 1.52082 0.292747C1.14507 -0.0826974 0.60885 -0.0954966 0.250183 0.259327C-0.0970988 0.603129 -0.0764613 1.15776 0.296795 1.53001C1.00168 2.23325 1.7062 2.93686 2.41073 3.64046C2.44382 3.67352 2.47442 3.70979 2.52317 3.76276C2.19617 4.08523 1.87095 4.40344 1.54822 4.72448C1.11518 5.15468 0.682862 5.58523 0.253029 6.01827C-0.0857124 6.35959 -0.0821543 6.91529 0.256588 7.25056C0.590348 7.5812 1.13547 7.58689 1.47563 7.25056C2.18798 6.5466 2.895 5.83695 3.60166 5.12731C3.6465 5.08215 3.66962 5.01531 3.71837 4.93212Z" fill="#34B25F"/>
</g>
<defs>
<clipPath id="clip0_57_19693">
<rect width="7.5" height="7.5" fill="white" transform="matrix(-1 0 0 1 7.5 0)"/>
</clipPath>
</defs>
</svg>
