<svg width="34" height="41" viewBox="0 0 34 41" fill="none" xmlns="http://www.w3.org/2000/svg">
<g clip-path="url(#clip0_57_12364)">
<path fill-rule="evenodd" clip-rule="evenodd" d="M21.5874 34.0599C20.7227 26.6397 31.5655 25.7955 32.1829 32.8327C32.8091 39.9408 22.3925 40.9765 21.5874 34.0599ZM20.3649 27.8208L20.3895 27.851L20.3842 27.8918H20.3544L20.3193 27.9219H20.2597L20.3649 27.8208ZM21.284 28.4735H21.4927C21.1595 29.2733 20.6631 29.5092 20.3439 30.4899L19.9457 30.4952L19.8756 31.3997H19.8458V31.5008H19.8107L19.7458 31.8324V31.8981H19.7107L19.7054 31.9832L19.8002 31.9779C19.8107 34.0635 19.7546 34.1096 20.2123 36.0853C15.7082 36.025 11.169 36.0746 6.65968 36.0746C0.475316 36.0746 1.45927 36.2059 1.45927 27.4927C1.45927 25.5969 1.31019 8.0677 1.54872 7.05681C2.05561 4.91444 4.67599 5.45358 6.91751 5.42875C6.91751 8.49511 8.22945 7.78217 14.5489 7.77685C20.8034 7.77685 22.2153 8.52171 22.196 5.43939C24.199 5.43407 26.7703 5.00666 27.442 6.656C27.8788 7.72187 27.656 24.155 27.6665 26.0863C22.9327 26.3382 25.3899 26.8649 21.9294 26.966L21.8207 27.0759C21.7611 27.1912 21.7207 27.1965 21.7207 27.2764H21.6856L21.6207 27.4076L21.5558 27.6435V27.8403H21.5208V28.2429H21.4857V28.344H21.4559L21.391 28.4752H21.284V28.4735ZM12.8914 3.60383C13.3088 2.61777 13.1107 1.47742 14.5612 1.50224C15.9731 1.52707 15.8643 2.70822 16.2309 3.64462L20.756 3.66945L20.7613 6.28889H8.37679V3.68009L12.8914 3.60383ZM6.9105 3.96739C2.0293 3.94611 -0.0052618 3.89113 0.0052618 9.22933L0 33.5314C0.0701573 38.5025 4.7935 37.5484 7.89095 37.5484C27.3859 37.5484 18.2777 37.1316 23.7062 39.8805C25.1882 40.6289 27.0123 40.8152 28.7031 40.3789C35.5101 38.6036 35.8732 28.681 29.1206 26.4694C29.1662 21.5586 29.1258 16.6266 29.1258 11.714C29.1258 9.44215 29.524 6.64181 28.1769 5.21416C26.63 3.57013 24.8708 3.96207 22.2013 3.96739C22.0031 1.39406 19.6265 2.35352 17.3183 2.1673C16.4273 -0.753632 12.6581 -0.693334 11.8022 2.17617C9.54666 2.30741 7.08063 1.40825 6.9105 3.96739Z" fill="#34B25F"/>
<path fill-rule="evenodd" clip-rule="evenodd" d="M4.26027 30.511C4.26027 31.4616 3.97613 31.6868 4.22519 32.6267C5.45294 33.1694 5.35297 32.2951 6.35271 32.1692C6.92976 32.0982 9.09762 33.8877 8.83804 31.6868C8.76262 31.0483 8.68895 30.9419 8.69948 30.2485C9.11691 29.9523 9.92197 29.4043 9.90267 28.6293C9.17655 27.4836 8.26275 28.6293 7.53136 27.3276C7.04376 26.4479 6.4825 25.2561 5.67745 26.8594C4.69875 28.8049 4.46373 27.5031 3.38506 28.2622C2.45021 28.9219 3.76391 29.7058 4.26027 30.511Z" fill="#34B25F"/>
<path fill-rule="evenodd" clip-rule="evenodd" d="M3.05713 20.7568C3.16587 21.7269 3.76747 21.8422 4.27085 22.5267C4.28137 23.527 3.85341 23.9296 4.34627 24.6939L4.61462 24.8252C5.73889 25.0114 3.71485 24.905 4.90227 24.8713C5.47931 24.8518 6.04057 24.2435 6.48782 24.2382C6.86492 24.2382 9.0433 25.9425 8.84511 23.8569C8.78548 23.2592 8.6855 23.2237 8.7504 22.5303C9.24325 21.8209 9.84836 21.6755 9.90799 20.7603C9.05207 19.6289 8.7539 20.5032 7.87869 19.886C7.17186 19.3877 7.64542 18.6251 6.48607 18.187C5.33198 18.6339 5.87044 19.1926 5.20394 19.8151C4.51991 20.4553 3.87797 19.6519 3.05713 20.7568Z" fill="#34B25F"/>
<path fill-rule="evenodd" clip-rule="evenodd" d="M25.8128 34.2301C25.3304 33.7779 25.0919 33.3399 24.7744 33.0933C24.1781 32.6251 23.3327 33.2441 23.7659 33.8683C24.4675 34.8633 25.7198 35.9096 25.7794 35.915C26.6143 35.6276 27.5193 34.4767 28.0806 33.9038C28.4577 33.5172 29.9696 32.0541 30.0696 31.6675C30.2344 31.0042 29.6925 30.6512 29.0558 30.9439C28.384 31.6054 26.5143 33.8488 25.8128 34.2301Z" fill="#34B25F"/>
<path fill-rule="evenodd" clip-rule="evenodd" d="M14.4034 22.6421C13.7317 22.9436 13.544 23.7824 14.4525 24.0254L22.1488 23.9793C22.8504 23.692 22.81 22.8389 22.0243 22.6226L14.4034 22.6421Z" fill="#34B25F"/>
<path fill-rule="evenodd" clip-rule="evenodd" d="M3.05713 12.8098C3.16587 13.7799 3.76747 13.8952 4.27085 14.5851C4.28137 15.58 3.85341 15.9826 4.34627 16.747L4.61462 16.8782C5.73889 17.0698 3.71485 16.9633 4.90227 16.9243C5.47931 16.9048 6.04057 16.2965 6.48782 16.2912C6.86492 16.2912 9.0433 17.9955 8.84511 15.9099C8.78548 15.3176 8.6855 15.2768 8.7504 14.5869C9.24325 13.8722 9.84836 13.7267 9.90799 12.8116C9.05207 11.6801 8.7539 12.5545 7.87869 11.9373C7.17186 11.4389 7.64542 10.6763 6.48607 10.2383C5.33198 10.6852 5.87044 11.2438 5.20394 11.8663C4.51991 12.5083 3.87797 11.7032 3.05713 12.8098Z" fill="#34B25F"/>
<path fill-rule="evenodd" clip-rule="evenodd" d="M14.498 5.37353C14.926 5.37353 15.268 5.02593 15.268 4.59497C15.268 4.16756 14.9242 3.81641 14.498 3.81641C14.0753 3.81641 13.728 4.16756 13.728 4.59497C13.7263 5.0277 14.0753 5.37353 14.498 5.37353Z" fill="#34B25F"/>
<path fill-rule="evenodd" clip-rule="evenodd" d="M25.1479 16.1282C25.5706 16.1282 25.9179 15.777 25.9179 15.3496C25.9179 14.9169 25.5706 14.571 25.1479 14.571C24.7252 14.571 24.3779 14.9186 24.3779 15.3496C24.3762 15.7752 24.7252 16.1282 25.1479 16.1282Z" fill="#34B25F"/>
<path fill-rule="evenodd" clip-rule="evenodd" d="M25.1479 23.9739C25.5706 23.9739 25.9179 23.6227 25.9179 23.1953C25.9179 22.7626 25.5706 22.4167 25.1479 22.4167C24.7252 22.4167 24.3779 22.7644 24.3779 23.1953C24.3762 23.6227 24.7252 23.9739 25.1479 23.9739Z" fill="#34B25F"/>
<path fill-rule="evenodd" clip-rule="evenodd" d="M14.5384 19.1181C13.6281 19.4143 13.3756 20.2585 14.6033 20.5015L25.034 20.4554C25.9828 20.168 25.9285 19.3097 24.8691 19.0986L14.5384 19.1181Z" fill="#34B25F"/>
<path fill-rule="evenodd" clip-rule="evenodd" d="M14.4034 14.8049C13.7317 15.1011 13.544 15.9453 14.4525 16.1829L22.1488 16.1421C22.8504 15.8548 22.81 14.9964 22.0243 14.7854L14.4034 14.8049Z" fill="#34B25F"/>
<path fill-rule="evenodd" clip-rule="evenodd" d="M14.5384 11.2812C13.6281 11.5774 13.3756 12.4216 14.6033 12.6592L25.034 12.6184C25.9828 12.3311 25.9285 11.4728 24.8691 11.2617L14.5384 11.2812Z" fill="#34B25F"/>
<path fill-rule="evenodd" clip-rule="evenodd" d="M14.5383 27.0315C13.7087 27.333 13.4737 28.1718 14.598 28.4148L24.1096 28.3687C24.969 28.0814 24.9251 27.2283 23.9552 27.012L14.5383 27.0315Z" fill="#34B25F"/>
<path fill-rule="evenodd" clip-rule="evenodd" d="M14.3279 30.4897C13.7456 30.7912 13.5824 31.6301 14.3682 31.873L21.0647 31.8269C21.6716 31.5396 21.6365 30.6866 20.9595 30.4702L14.3279 30.4897Z" fill="#34B25F"/>
</g>
<defs>
<clipPath id="clip0_57_12364">
<rect width="34" height="40.6111" fill="white"/>
</clipPath>
</defs>
</svg>
