<svg width="29" height="29" viewBox="0 0 29 29" fill="none" xmlns="http://www.w3.org/2000/svg">
<g opacity="0.2">
<path d="M28.9991 14.1631L27.6953 13.8878C27.6403 12.0761 27.2107 10.3445 26.4764 8.7731L27.5154 7.94233C27.1258 7.1516 26.6662 6.40591 26.1417 5.70026L24.9228 6.24076C23.8388 4.85448 22.4801 3.6834 20.9215 2.8126L21.2712 1.52641C20.5019 1.12103 19.6877 0.780721 18.8385 0.515476L18.1691 1.66654C17.3349 1.42632 16.4607 1.26617 15.5615 1.1911C14.6623 1.11603 13.7732 1.13605 12.909 1.24115L12.4394 0C11.5602 0.125115 10.701 0.330305 9.87678 0.605559L10.0167 1.93178C8.33821 2.53734 6.80463 3.47321 5.51083 4.66931L4.39686 3.93864C3.76745 4.5492 3.19298 5.21481 2.67846 5.93047L3.57263 6.92139C2.59353 8.35271 1.88919 9.99423 1.54451 11.7759L0.210742 11.8409C0.135812 12.2663 0.0808626 12.7017 0.045895 13.1421C0.0109274 13.5825 -0.00405874 14.0229 0.000936632 14.4533L1.30473 14.7286C1.35968 16.5403 1.78928 18.2719 2.5236 19.8433L1.48456 20.6741C1.8742 21.4648 2.33377 22.2105 2.85829 22.9162L4.07716 22.3757C5.16115 23.7619 6.5199 24.933 8.07845 25.8038L7.72877 27.09C8.49806 27.4954 9.31231 27.8357 10.1615 28.1009L10.8309 26.9499C11.6651 27.1901 12.5393 27.3502 13.4385 27.4253C14.3376 27.5004 15.2268 27.4804 16.091 27.3753L16.5656 28.6214C17.4448 28.4963 18.304 28.2911 19.1282 28.0159L18.9783 26.6896C20.6568 26.0841 22.1904 25.1482 23.4842 23.9521L24.6031 24.6828C25.2326 24.0722 25.807 23.4066 26.3215 22.6909L25.4274 21.7C26.4065 20.2687 27.1108 18.6272 27.4555 16.8455L28.7893 16.7805C28.8642 16.3551 28.9191 15.9197 28.9541 15.4793C28.9891 15.0389 29.0041 14.5985 28.9991 14.1631ZM13.7132 23.9671C8.35819 23.5317 4.37189 18.8574 4.80648 13.5275C5.24108 8.19256 9.93173 4.21889 15.2818 4.64929C20.6368 5.08469 24.6231 9.75901 24.1885 15.0939C23.7539 20.4289 19.0633 24.3975 13.7132 23.9671Z" fill="#ABB5DB" fill-opacity="0.69"/>
</g>
</svg>
