<svg width="134" height="1" viewBox="0 0 134 1" fill="none" xmlns="http://www.w3.org/2000/svg">
<mask id="path-1-inside-1_57_12384" fill="white">
<path d="M0 0.5C0 0.776142 0.223858 1 0.5 1H133.5C133.776 1 134 0.776142 134 0.5C134 0.223858 133.776 0 133.5 0H0.500004C0.223861 0 0 0.223858 0 0.5Z"/>
</mask>
<path d="M0 0.5C0 0.776142 0.223858 1 0.5 1H133.5C133.776 1 134 0.776142 134 0.5C134 0.223858 133.776 0 133.5 0H0.500004C0.223861 0 0 0.223858 0 0.5Z" fill="white"/>
<path d="M0.5 0H133.5V2H0.5V0ZM133.5 1H0.500004V-1H133.5V1ZM0.500004 1C0.776137 1 1 0.776152 1 0.5H-1C-1 -0.328436 -0.328414 -1 0.500004 -1V1ZM133 0.5C133 0.776142 133.224 1 133.5 1V-1C134.328 -1 135 -0.328427 135 0.5H133ZM133.5 0C133.224 0 133 0.223848 133 0.5H135C135 1.32844 134.328 2 133.5 2V0ZM0.5 2C-0.328427 2 -1 1.32843 -1 0.5H1C1 0.223858 0.776142 0 0.5 0V2Z" fill="#9F9CCE" fill-opacity="0.43" mask="url(#path-1-inside-1_57_12384)"/>
</svg>
