<svg width="54" height="43" viewBox="0 0 54 43" fill="none" xmlns="http://www.w3.org/2000/svg">
<g opacity="0.2">
<path d="M0.587356 20.4627C-0.00140094 20.8827 -0.178028 21.6564 0.197305 22.1942L13.908 41.8012C14.2833 42.3391 15.0708 42.4422 15.6669 42.0222L44.5086 21.8185C45.0974 21.4058 45.274 20.6322 44.8987 20.0943L31.188 0.479961C30.8127 -0.0579222 30.0252 -0.161078 29.4365 0.258913L0.587356 20.4627ZM40.3211 19.9174C40.6081 20.3301 40.4536 20.9416 39.9826 21.2732L16.6972 37.5865C16.2189 37.9255 15.5933 37.8592 15.3063 37.4465L4.76753 22.3637C4.48051 21.9511 4.63506 21.3395 5.11343 21.0079L28.3914 4.69461C28.8698 4.36304 29.488 4.42198 29.7824 4.83461L40.3211 19.9174Z" fill="#ABB5DB" fill-opacity="0.56"/>
<path d="M20.138 41.7525L52.7699 18.8888C53.4396 18.4172 53.5794 17.4593 53.079 16.7446L52.1664 15.4404L17.1133 40.0062L18.0259 41.3104C18.5189 42.0251 19.4683 42.2167 20.138 41.7525ZM32.811 30.258L37.6388 26.876C37.8228 26.7507 38.073 26.7949 38.1982 26.9791C38.3306 27.1633 38.2865 27.4139 38.1025 27.5465L33.2747 30.9285C33.0907 31.0538 32.8405 31.0096 32.7153 30.8254C32.5902 30.6338 32.6344 30.3833 32.811 30.258Z" fill="#ABB5DB" fill-opacity="0.56"/>
</g>
</svg>
