<svg width="10" height="10" viewBox="0 0 10 10" fill="none" xmlns="http://www.w3.org/2000/svg">
<path d="M5.20652 10C5.0725 10 4.93837 10 4.80435 10C4.7487 9.99598 4.69304 9.99283 4.6375 9.98794C4.2787 9.95641 3.92522 9.89783 3.57946 9.79391C2.77957 9.55348 2.08207 9.14065 1.48804 8.55435C1.00054 8.07326 0.626304 7.51543 0.368043 6.88033C0.178913 6.41522 0.0606522 5.93359 0.021087 5.43283C0.0146739 5.3537 0.00706522 5.27467 0 5.19565C0 5.06163 0 4.9275 0 4.79348C0.00326087 4.77033 0.00717391 4.74728 0.00978261 4.72413C0.0313043 4.52848 0.0420652 4.33098 0.0757609 4.1375C0.222065 3.29848 0.5625 2.54457 1.09587 1.88065C1.69457 1.13533 2.44565 0.601087 3.3475 0.281413C3.70978 0.153043 4.08207 0.0676087 4.465 0.0306522C4.57446 0.0201087 4.68402 0.0102174 4.79348 0C4.9275 0 5.06163 0 5.19565 0C5.20793 0.00217391 5.22 0.00521739 5.23239 0.00652174C5.4425 0.0291304 5.65435 0.0408696 5.86239 0.0758696C6.51717 0.185761 7.12576 0.422717 7.68315 0.782609C8.55978 1.3487 9.20652 2.11141 9.61304 3.07467C9.80109 3.52022 9.9213 3.98326 9.96924 4.46478C9.98054 4.57783 9.98978 4.6912 10 4.80435C10 4.93478 10 5.06522 10 5.19565C9.99674 5.22239 9.99152 5.24902 9.99043 5.27587C9.97935 5.54391 9.94315 5.8088 9.88446 6.07011C9.65772 7.07946 9.16707 7.94 8.41391 8.6487C7.85337 9.1762 7.20272 9.55261 6.46717 9.78033C6.16293 9.87446 5.85239 9.93924 5.535 9.96935C5.42554 9.97978 5.31598 9.98978 5.20652 10ZM5.01663 0.892283C2.8113 0.880109 0.958152 2.63891 0.893913 4.88098C0.82837 7.1713 2.64348 9.04913 4.89359 9.10641C7.15772 9.16402 9.04717 7.37033 9.10696 5.11044C9.16761 2.81674 7.32511 0.900978 5.01663 0.892283Z" fill="#5048E5"/>
<path d="M4.49986 4.50005C4.49986 4.47353 4.49986 4.45222 4.49986 4.43092C4.49986 3.86581 4.49954 3.3007 4.50008 2.73559C4.5003 2.52038 4.61758 2.33657 4.80041 2.26059C5.14269 2.11842 5.49791 2.35788 5.49867 2.73298C5.49975 3.29809 5.49899 3.8632 5.49899 4.42831C5.49899 4.44983 5.49899 4.47135 5.49899 4.50005C5.52334 4.50005 5.54432 4.50005 5.5653 4.50005C6.13584 4.50005 6.70638 4.49983 7.27693 4.50016C7.50791 4.50027 7.70182 4.64722 7.76367 4.86766C7.82388 5.08266 7.73149 5.31266 7.53628 5.42929C7.45041 5.48059 7.35573 5.50016 7.25638 5.50005C6.69486 5.49994 6.13345 5.49994 5.57193 5.49994C5.55041 5.49994 5.52888 5.49994 5.50008 5.49994C5.50008 5.52364 5.50008 5.54462 5.50008 5.56559C5.50008 6.1307 5.50073 6.69581 5.49975 7.26092C5.49943 7.45168 5.42454 7.60679 5.25932 7.70744C5.09638 7.80679 4.92465 7.80972 4.75856 7.71733C4.58584 7.62125 4.50236 7.46559 4.50171 7.26972C4.49986 6.70277 4.50106 6.13592 4.50106 5.56896C4.50106 5.54766 4.50106 5.52646 4.50106 5.49994C4.47475 5.49994 4.45356 5.49994 4.43236 5.49994C3.86725 5.49994 3.30215 5.50048 2.73704 5.49962C2.56617 5.4994 2.42389 5.43592 2.31856 5.29809C2.09215 5.0019 2.27041 4.56364 2.63965 4.50994C2.68062 4.50396 2.72225 4.50038 2.76367 4.50038C3.31791 4.49972 3.87215 4.49994 4.42638 4.49994C4.4478 4.50005 4.46943 4.50005 4.49986 4.50005Z" fill="#5048E5"/>
</svg>
