<svg width="40" height="38" viewBox="0 0 40 38" fill="none" xmlns="http://www.w3.org/2000/svg">
<g clip-path="url(#clip0_57_12354)">
<path d="M28.1717 37.9931C25.2852 37.9931 22.4005 37.9792 19.514 38C18.3307 38.0087 17.3431 37.6844 16.7315 36.6075C16.1043 35.501 16.3486 34.4709 16.9775 33.4269C19.8536 28.6561 22.7089 23.8714 25.5572 19.085C26.9433 16.7577 29.3567 16.7005 30.7601 19.026C33.7107 23.9217 36.6387 28.8295 39.546 33.7512C40.7241 35.7473 39.4888 37.9463 37.1741 37.9758C34.1733 38.0139 31.1707 37.9844 28.1699 37.9844C28.1717 37.9879 28.1717 37.9896 28.1717 37.9931ZM29.6391 26.4779C29.6409 26.4779 29.6426 26.4779 29.6443 26.4779C29.6443 26.0461 29.6443 25.6143 29.6443 25.1825C29.6426 24.7212 29.6634 24.2599 29.6339 23.8003C29.5681 22.824 28.979 22.2343 28.1266 22.2603C27.3175 22.2846 26.7544 22.8673 26.7371 23.8194C26.7059 25.6039 26.7059 27.3901 26.7354 29.1746C26.7527 30.1735 27.3418 30.7701 28.189 30.7614C29.0327 30.7528 29.6028 30.1423 29.6339 29.1556C29.6617 28.2642 29.6391 27.3711 29.6391 26.4779ZM29.8938 33.7998C29.925 32.839 29.2233 32.0673 28.2687 32.0135C27.3054 31.9598 26.472 32.7315 26.4443 33.7061C26.4183 34.6339 27.165 35.4525 28.0833 35.501C29.0466 35.5513 29.8626 34.7848 29.8938 33.7998Z" fill="#34B25F"/>
<path d="M27.0185 13.7592V13.7594C27.0185 13.9239 27.0282 14.0841 27.0385 14.2525C27.0398 14.2745 27.0411 14.2967 27.0425 14.319H27.0448H27.0501H27.0555H27.0608H27.066H27.0713H27.0766H27.0819H27.0872H27.0925H27.0978H27.1031H27.1084H27.1137H27.119H27.1243H27.1295H27.1348H27.1401H27.1454H27.1507H27.1559H27.1612H27.1665H27.1718H27.177H27.1823H27.1876H27.1929H27.1981H27.2034H27.2087H27.2139H27.2192H27.2244H27.2297H27.235H27.2402H27.2455H27.2508H27.256H27.2613H27.2665H27.2718H27.277H27.2823H27.2875H27.2928H27.298H27.3033H27.3085H27.3138H27.319H27.3243H27.3295H27.3347H27.34H27.3452H27.3505H27.3557H27.3609H27.3662H27.3714H27.3766H27.3819H27.3871H27.3923H27.3976H27.4028H27.408H27.4132H27.4185H27.4237H27.4289H27.4341H27.4394H27.4446H27.4498H27.455H27.4602H27.4654H27.4707H27.4759H27.4811H27.4863H27.4915H27.4967H27.5019H27.5071H27.5124H27.5176H27.5228H27.528H27.5332H27.5384H27.5436H27.5488H27.554H27.5592H27.5644H27.5696H27.5748H27.58H27.5852H27.5904H27.5956H27.6008H27.606H27.6112H27.6164H27.6216H27.6267H27.6319H27.6371H27.6423H27.6475H27.6527H27.6579H27.6631H27.6682H27.6734H27.6786H27.6838H27.689H27.6942H27.6993H27.7045H27.7097H27.7149H27.72H27.7252H27.7304H27.7356H27.7407H27.7459H27.7511H27.7563H27.7614H27.7666H27.7718H27.7769H27.7821H27.7873H27.7925H27.7976H27.8028H27.808H27.8131H27.8183H27.8234H27.8286H27.8338H27.8389H27.8441H27.8493H27.8544H27.8596H27.8647H27.8699H27.875H27.8802H27.8854H27.8905H27.8957H27.9008H27.906H27.9111H27.9163H27.9214H27.9266H27.9317H27.9369H27.942H27.9472H27.9523H27.9575H27.9626H27.9678H27.9729H27.9781H27.9832H27.9884H27.9935H27.9987H28.0038H28.009H28.0141H28.0192H28.0244H28.0295H28.0347H28.0398H28.0449H28.0501H28.0552H28.0604H28.0655H28.0706H28.0758H28.0809H28.0861H28.0912H28.0963H28.1015H28.1066H28.1117H28.1169H28.122H28.1271H28.1323H28.1374H28.1425H28.1477H28.1528H28.1579H28.1631H28.1682H28.1733H28.1785H28.1836H28.1887H28.1938H28.199H28.2041H28.2092H28.2144H28.2195H28.2246H28.2297H28.2349H28.24H28.2451H28.2502H28.2554H28.2605H28.2656H28.2707H28.2759H28.281H28.2861H28.2912H28.2964H28.3015H28.3066H28.3117H28.3168H28.322H28.3271H28.3322H28.3373H28.3425H28.3476H28.3527H28.3578H28.3629H28.3681H28.3732H28.3783H28.3834H28.3885H28.3937H28.3988H28.4039H28.409H28.4141H28.4192H28.4244H28.4295H28.4346H28.4397H28.4448H28.45H28.4551H28.4602H28.4653H28.4704H28.4755H28.4807H28.4858H28.4909H28.496H28.5011H28.5062H28.5114H28.5165H28.5216H28.5267H28.5318H28.5369H28.542H28.5472H28.5523H28.5574H28.5625H28.5676H28.5727H28.5779H28.583H28.5881H28.5932H28.5983H28.6034H28.6085H28.6137H28.6188H28.6239H28.629H28.6341H28.6392H28.6444H28.6495H28.6546H28.6597H28.6648H28.6699H28.675H28.6802H28.6853H28.6904H28.6955H28.7006H28.7057H28.7109H28.716H28.7211H28.7262H28.7313H28.7364H28.7416H28.7467H28.7518H28.7569H28.762H28.7671H28.7723H28.7774H28.7825H28.7876H28.7927H28.7978H28.803H28.8081H28.8132H28.8183H28.8234H28.8286H28.8337H28.8388H28.8439H28.849H28.8542H28.8593H28.8644H28.8695H28.8746H28.8798H28.8849H28.89H28.8951H28.9002H28.9054H28.9105H28.9156H28.9207H28.9259H28.931H28.9361H28.9412H28.9464H28.9515H28.9566H28.9617H28.9669H28.972H28.9771H28.9822H28.9874H28.9925H28.9976H29.0027H29.0079H29.013H29.0181H29.0233H29.0284H29.0335H29.0386H29.0438H29.0489H29.054H29.0592H29.0643H29.0694H29.0746H29.0797H29.0848H29.09H29.0951H29.1002H29.1054H29.1105H29.1156H29.1208H29.1259H29.131H29.1362H29.1413H29.1464H29.1516H29.1567H29.1619H29.167H29.1721H29.1773H29.1824H29.1876H29.1927H29.1978H29.203H29.2081H29.2133H29.2184H29.2236H29.2287H29.2339H29.239H29.2442H29.2493H29.2544H29.2596H29.2647H29.2699H29.275H29.2802H29.2853H29.2905H29.2956H29.3008H29.306H29.3111H29.3163H29.3214H29.3266H29.3317H29.3369H29.342H29.3466C29.3482 14.3126 29.3498 14.3066 29.3512 14.3012C29.364 14.2505 29.3698 14.2162 29.3698 14.1878V14.1877C29.3703 13.2416 29.3746 12.2961 29.3788 11.3511C29.3896 8.97311 29.4003 6.59774 29.3508 4.222M27.0185 13.7592L29.5507 4.21783M27.0185 13.7592C27.0171 12.6036 27.0171 11.4477 27.017 10.2916M27.0185 13.7592L27.017 10.2916M29.3508 4.222L29.5507 4.21783M29.3508 4.222C29.3508 4.22202 29.3508 4.22204 29.3508 4.22206L29.5507 4.21783M29.3508 4.222C29.3012 1.88155 27.5544 0.235941 25.1521 0.2193C21.6238 0.194841 18.0946 0.201267 14.5641 0.207695C13.59 0.209469 12.6157 0.211243 11.6414 0.212368L11.6412 0.212368C10.453 0.212368 9.43411 0.612627 8.58808 1.46277L8.58798 1.46287C6.98564 3.07082 5.37789 4.6724 3.77014 6.27398C3.33146 6.71098 2.89278 7.14798 2.45421 7.5851M29.5507 4.21783C29.4988 1.76219 27.657 0.0366471 25.1535 0.019305C21.6242 -0.00516111 18.0938 0.00126725 14.5632 0.00769603C13.5892 0.00946959 12.6152 0.0112432 11.6412 0.0123681C10.4024 0.0123681 9.33165 0.432047 8.44631 1.3217C6.84424 2.92937 5.23683 4.53062 3.62911 6.13217C3.1904 6.5692 2.75167 7.00625 2.31302 7.44346M2.45421 7.5851L2.31302 7.44346M2.45421 7.5851C2.45421 7.58511 2.45421 7.58511 2.45421 7.58511L2.31302 7.44346M2.45421 7.5851C1.64987 8.38686 1.16838 9.3357 1.16508 10.4511L0.965081 10.4506C0.968546 9.27131 1.47965 8.27414 2.31302 7.44346M11.1969 4.27599L11.1969 4.27594C11.1995 3.66672 11.2708 3.20509 11.5659 2.91222C11.8606 2.61976 12.3255 2.54809 12.9454 2.54722C12.9455 2.54722 12.9455 2.54722 12.9455 2.54722L11.1969 4.27599ZM11.1969 4.27599C11.1948 4.79872 11.1955 5.31975 11.1962 5.84017C11.1972 6.61917 11.1983 7.39679 11.19 8.17659C11.1825 8.863 11.0016 9.35567 10.6826 9.6794C10.3642 10.0027 9.87827 10.1877 9.19731 10.1968L9.19717 10.1968M11.1969 4.27599L9.19717 10.1968M9.19717 10.1968C8.52084 10.2063 7.84375 10.2046 7.16485 10.2025L7.08266 10.2022C6.43155 10.2001 5.77874 10.198 5.12614 10.2055C4.58747 10.2117 4.16372 10.3024 3.88248 10.5804C3.60008 10.8595 3.50862 11.2802 3.50774 11.8185V11.8186M9.19717 10.1968L3.50774 11.8186M3.50774 11.8186C3.49907 18.0324 3.49734 24.2463 3.50947 30.4603L3.50947 30.4604M3.50774 11.8186L3.50947 30.4604M3.50947 30.4604C3.51127 31.144 3.66319 31.6756 4.03515 32.0324C4.40507 32.3871 4.95177 32.5293 5.64892 32.5328C7.38265 32.5414 9.11581 32.5396 10.8486 32.5378C11.5703 32.5371 12.2918 32.5363 13.0134 32.5363H13.0155H13.0176H13.0198H13.0219H13.0241H13.0262H13.0284H13.0305H13.0326H13.0348H13.0369H13.0391H13.0412H13.0434H13.0455H13.0476H13.0498H13.0519H13.0541H13.0562H13.0583H13.0605H13.0626H13.0648H13.0669H13.0691H13.0712H13.0733H13.0755H13.0776H13.0798H13.0819H13.0841H13.0862H13.0883H13.0905H13.0926H13.0948H13.0969H13.0991H13.1012H13.1033H13.1055H13.1076H13.1098H13.1119H13.1141H13.1162H13.1183H13.1205H13.1226H13.1248H13.1269H13.1291H13.1312H13.1334H13.1355H13.1376H13.1398H13.1419H13.1441H13.1462H13.1484H13.1505H13.1526H13.1548H13.1569H13.1591H13.1612H13.1634H13.1655H13.1677H13.1698H13.172H13.1741H13.1762H13.1784H13.1805H13.1827H13.1848H13.187H13.1891H13.1913H13.1934H13.1956H13.1977H13.1998H13.202H13.2041H13.2063H13.2084H13.2106H13.2127H13.2149H13.217H13.2192H13.2213H13.2235H13.2256H13.2278H13.2299H13.2321H13.2342H13.2364H13.2385H13.2406H13.2428H13.2449H13.2471H13.2492H13.2514H13.2535H13.2557H13.2578H13.26H13.2621H13.2643H13.2664H13.2686H13.2707H13.2729H13.275H13.2772H13.2793H13.2815H13.2836H13.2858H13.2879H13.2901H13.2923H13.2944H13.2966H13.2987H13.3009H13.303H13.3052H13.3073H13.3095H13.3116H13.3138H13.3159H13.3181H13.3202H13.3224H13.3245H13.3267H13.3289H13.331H13.3332H13.3353H13.3375H13.3396H13.3418H13.3439H13.3461H13.3483H13.3504H13.3526H13.3547H13.3569H13.359H13.3612H13.3634H13.3655H13.3677H13.3698H13.372H13.3741H13.3763H13.3785H13.3806H13.3828H13.3849H13.3871H13.3893H13.3914H13.3936H13.3957H13.3979H13.4001H13.4022H13.4044H13.4065H13.4087H13.4109H13.413H13.4152H13.4173H13.4195H13.4217H13.4238H13.426H13.4282H13.4303H13.4325H13.4347H13.4368H13.439H13.4412H13.4433H13.4455H13.4476H13.4498H13.452H13.4541H13.4563H13.4585H13.4606H13.4628H13.465H13.4671H13.4693H13.4715H13.4737H13.4758H13.478H13.4802H13.4823H13.4845H13.4867H13.4888H13.491H13.4932H13.4954H13.4975H13.4997H13.5019H13.504H13.5062H13.5084H13.5106H13.5127H13.5149H13.5171H13.5193H13.5214H13.5236H13.5258H13.5279H13.5301H13.5323H13.5345H13.5367H13.5388H13.541H13.5432H13.5454H13.5475H13.5497H13.5519H13.5541H13.5563H13.5584H13.5606H13.5628H13.565H13.5671H13.5693H13.5715H13.5737H13.5759H13.5781H13.5802H13.5824H13.5846H13.5868H13.589H13.5912H13.5933H13.5955H13.5977H13.5999H13.6021H13.6043H13.6064H13.6086H13.6108H13.613H13.6152H13.6174H13.6196H13.6218H13.6239H13.6261H13.6283H13.6305H13.6327H13.6349H13.6371H13.6393H13.6415H13.6437H13.6458H13.648H13.6502H13.6524H13.6546H13.6568H13.659H13.6612H13.6634H13.6656H13.6678H13.67H13.6722H13.6744H13.6766H13.6788H13.681H13.6832H13.6854H13.6876H13.6898H13.692H13.6942H13.6964H13.6986H13.7008H13.703H13.7052H13.7074H13.7096H13.7118H13.714H13.7162H13.7184H13.7206H13.7228H13.725H13.7272H13.7294H13.7316H13.7338H13.736H13.7382H13.7404H13.7426H13.7448H13.7471H13.7493H13.7515H13.7537H13.7559H13.7581H13.7603H13.7625H13.7647H13.7669H13.7692H13.7714H13.7736H13.7758H13.778H13.7802H13.7824H13.7847H13.7869H13.7891H13.7913H13.7935H13.7957H13.798H13.8002H13.8024H13.8046H13.8068H13.8091H13.8113H13.8135H13.8157H13.8179H13.8202H13.8224H13.8246H13.8268H13.8291H13.8313H13.8335H13.8357H13.838H13.8402H13.8424H13.8446H13.8469H13.8491H13.8513H13.8535H13.8558H13.858H13.8602H13.8625H13.8647H13.8669H13.8692H13.8714H13.8736H13.8755C13.8355 32.6875 13.797 32.8349 13.7594 32.9792C13.6075 33.5614 13.4689 34.0931 13.2918 34.6149C13.2827 34.6415 13.2356 34.7053 13.1439 34.7689C13.0533 34.8317 12.9726 34.8573 12.9371 34.8573L12.9358 34.8573M3.50947 30.4604L12.9358 34.8573M12.9358 34.8573C12.3613 34.861 11.7874 34.867 11.2139 34.873M12.9358 34.8573L11.2139 34.873M27.017 10.2916C27.0169 8.44185 27.0169 6.59153 27.0115 4.74098M27.017 10.2916L27.0115 4.74098M27.0115 4.74098C27.0097 4.00439 26.8686 3.43954 26.4931 3.06442M27.0115 4.74098L26.4931 3.06442M26.4931 3.06442C26.1176 2.68932 25.552 2.54813 24.8126 2.54722L26.4931 3.06442ZM11.2139 34.873C9.10159 34.895 6.99568 34.917 4.89294 34.8245M11.2139 34.873L4.89294 34.8245M4.89294 34.8245C2.78817 34.7322 1.18521 33.031 1.17027 30.9095L4.89294 34.8245ZM1.1624 11.5002C1.16329 11.1505 1.16419 10.8009 1.16508 10.4512L1.17027 30.9094C1.12919 24.4411 1.14579 17.9712 1.1624 11.5002Z" fill="#34B25F" stroke="white" stroke-width="0.4"/>
<path d="M7.26474 15.0017L7.26476 15.0016C7.33234 14.6513 7.47739 14.4023 7.68157 14.2396C7.88644 14.0763 8.16676 13.9872 8.52779 13.9872C9.58663 13.9872 10.6455 13.9868 11.7044 13.9865C15.1456 13.9852 18.5869 13.984 22.0274 13.9959C22.4208 13.9975 22.7266 14.1241 22.9355 14.3278C23.1444 14.5317 23.2682 14.8245 23.2762 15.181C23.2841 15.5548 23.1653 15.858 22.9528 16.0689C22.7398 16.2802 22.4184 16.4128 21.9953 16.4169L21.9953 16.4169C20.3991 16.4329 18.8042 16.4297 17.208 16.4264C16.5545 16.4251 15.9008 16.4238 15.2467 16.4238H15.1845L15.1793 16.429C14.5615 16.4291 13.9437 16.4301 13.326 16.4311C11.7733 16.4336 10.2211 16.4361 8.66932 16.4238C8.15544 16.4197 7.76581 16.2593 7.52642 16.0114C7.28985 15.7663 7.18377 15.4195 7.26474 15.0017Z" fill="#34B25F" stroke="white" stroke-width="0.3"/>
<path d="M9.13421 22.7407C11.1871 22.7433 13.24 22.743 15.2929 22.7427C15.9775 22.7426 16.662 22.7425 17.3466 22.7425C20.1204 22.7425 20.1204 22.7425 21.4909 20.3302C21.5079 20.3004 21.5184 20.2666 21.5376 20.2049C21.5386 20.2015 21.5397 20.1981 21.5408 20.1946M9.13421 22.7407L21.4364 20.0293C21.4837 20.036 21.5339 20.0428 21.5879 20.0492C21.5671 20.1104 21.5524 20.1574 21.5408 20.1946M9.13421 22.7407C9.10999 22.7407 9.08573 22.7408 9.06143 22.7408C8.76945 22.7412 8.4728 22.7415 8.18649 22.6887L9.13421 22.7407ZM21.5408 20.1946C21.4854 20.1877 21.4356 20.1809 21.39 20.1744M21.5408 20.1946L21.39 20.1744M21.39 20.1744C21.3746 20.1722 21.3597 20.17 21.3452 20.1679C21.2224 20.1503 21.129 20.1368 21.0301 20.1368C17.0244 20.1386 13.0205 20.142 9.01492 20.149L9.01466 20.149C8.98147 20.149 8.94858 20.1489 8.91599 20.1488C8.68709 20.1481 8.47234 20.1474 8.26266 20.1817L8.2623 20.1817C7.92258 20.2364 7.67561 20.3691 7.5121 20.5583C7.34863 20.7475 7.25593 21.0078 7.2519 21.3411C7.2487 21.6717 7.32963 21.94 7.48394 22.1387C7.63734 22.3362 7.87467 22.4797 8.21326 22.5411L8.21371 22.5412C8.48577 22.5914 8.76892 22.5911 9.06389 22.5908C9.08726 22.5908 9.1107 22.5907 9.13421 22.5907H9.1344C11.1872 22.5933 13.2399 22.593 15.2928 22.5927C15.9774 22.5926 16.662 22.5925 17.3466 22.5925C18.0428 22.5925 18.5549 22.5923 18.9579 22.5554C19.3588 22.5187 19.6372 22.4465 19.8695 22.3113C20.1019 22.1761 20.3021 21.9696 20.5321 21.6391C20.7634 21.3068 21.0165 20.8616 21.3605 20.2561L21.3606 20.2558C21.3656 20.247 21.3711 20.2342 21.3847 20.1913C21.3864 20.186 21.3881 20.1804 21.39 20.1744Z" fill="#34B25F" stroke="white" stroke-width="0.3"/>
<path d="M16.3485 28.5696L16.3484 28.5698C16.3256 28.6042 16.2645 28.649 16.1638 28.6858C16.0682 28.7207 15.9614 28.7394 15.8781 28.7402C13.3989 28.754 10.9209 28.7644 8.44314 28.735C8.0615 28.7302 7.76105 28.5924 7.55759 28.3768C7.3535 28.1607 7.23794 27.8567 7.24503 27.5041L7.09506 27.5011L7.24503 27.5042C7.25215 27.1629 7.36876 26.8704 7.56629 26.6637C7.76276 26.458 8.04822 26.3276 8.41301 26.3244C10.7706 26.3072 13.1289 26.3163 15.4877 26.3254C16.2055 26.3282 16.9233 26.331 17.6412 26.333C17.6446 26.3354 17.6486 26.3383 17.6535 26.3419C17.6596 26.3464 17.6666 26.3517 17.6745 26.3577C17.6813 26.3628 17.6888 26.3684 17.6969 26.3744C17.5946 26.5442 17.4932 26.7141 17.392 26.8837C17.0522 27.453 16.7141 28.0194 16.3485 28.5696Z" fill="#34B25F" stroke="white" stroke-width="0.3"/>
<path d="M14.4957 9.0185L14.4957 9.01868C14.4894 9.38797 14.6187 9.68527 14.8501 9.89415C15.0836 10.1049 15.4348 10.2376 15.8906 10.2466C15.8906 10.2466 15.8906 10.2466 15.8906 10.2466L15.8877 10.3966C16.5777 10.41 17.2669 10.4071 17.9564 10.4042C18.2468 10.403 18.5372 10.4018 18.8279 10.4018C19.145 10.4018 19.4622 10.4035 19.7793 10.4053C20.4998 10.4094 21.2201 10.4134 21.9395 10.3966L14.4957 9.0185ZM14.4957 9.0185C14.5011 8.67374 14.6352 8.37872 14.8645 8.16801C15.0945 7.95676 15.4288 7.82267 15.8458 7.81865L15.846 7.81864C17.8911 7.79611 19.936 7.79611 21.9808 7.82384C22.3952 7.82947 22.7196 7.96661 22.9384 8.182C23.1569 8.39711 23.2808 8.70072 23.2761 9.06099V9.06101C23.2714 9.42761 23.1468 9.71337 22.9289 9.91139C22.7091 10.1111 22.3783 10.2359 21.936 10.2466L14.4957 9.0185Z" fill="#34B25F" stroke="white" stroke-width="0.3"/>
<path d="M29.639 26.4779C29.639 27.3711 29.6616 28.2642 29.6338 29.1556C29.6027 30.1441 29.0326 30.7528 28.1889 30.7614C27.3417 30.7701 26.7509 30.1735 26.7353 29.1746C26.7058 27.3901 26.7058 25.6039 26.737 23.8194C26.7543 22.8673 27.3174 22.2846 28.1265 22.2603C28.9789 22.2343 29.568 22.824 29.6338 23.8003C29.665 24.2599 29.6442 24.7212 29.6442 25.1825C29.646 25.6143 29.6442 26.0461 29.6442 26.4779C29.6425 26.4779 29.6408 26.4779 29.639 26.4779Z" fill="white"/>
<path d="M29.8939 33.7997C29.861 34.7848 29.0467 35.5513 28.0834 35.501C27.1651 35.4524 26.4166 34.6339 26.4443 33.7061C26.4721 32.7332 27.3054 31.9597 28.2687 32.0135C29.2234 32.0673 29.9251 32.839 29.8939 33.7997Z" fill="white"/>
</g>
<defs>
<clipPath id="clip0_57_12354">
<rect width="39.0556" height="38" fill="white" transform="translate(0.944336)"/>
</clipPath>
</defs>
</svg>
