<svg width="32" height="39" viewBox="0 0 32 39" fill="none" xmlns="http://www.w3.org/2000/svg">
<g opacity="0.28">
<path d="M9.43316 9.37274C11.1185 12.2386 11.6059 15.0139 10.1332 18.1887C8.92498 20.7882 3.82239 31.49 2.74898 34.1481C2.22524 35.4478 1.90892 37.1311 3.1379 38.3137C3.32458 38.4948 3.55793 38.6599 3.81202 38.7185C4.07648 38.7825 4.33576 38.7239 4.56393 38.6333C5.67882 38.1965 6.16626 37.0938 6.57592 36.0657C7.61822 33.4556 12.56 22.7379 13.6023 20.1224C14.2298 18.5563 14.9247 16.905 16.4803 16.0367C17.8856 15.2483 19.8354 15.2003 21.111 14.2681C17.4708 11.9296 13.5142 10.0279 9.42798 8.65894C9.27759 8.77613 9.18944 8.95724 9.43316 9.37274Z" fill="#ABB5DB" fill-opacity="0.56"/>
<path d="M3.5008 38.8891C3.31931 38.8039 3.13781 38.676 2.9615 38.5056C1.90365 37.4881 1.7429 35.9433 2.51036 34.0523C3.32968 32.0281 6.4099 25.4867 8.453 21.1559C9.09083 19.8082 9.60938 18.7055 9.89977 18.077C11.2273 15.2164 11.0147 12.5743 9.21528 9.51134C8.87303 8.93071 9.05971 8.61642 9.27751 8.45661C9.34492 8.40867 9.42789 8.39269 9.50567 8.41932C13.623 9.79899 17.5744 11.6954 21.2458 14.0552C21.3184 14.1031 21.3598 14.183 21.365 14.2682C21.365 14.3535 21.3287 14.4387 21.2561 14.4866C20.525 15.0247 19.5864 15.2803 18.6789 15.5254C17.9581 15.7225 17.2114 15.9249 16.5995 16.2711C15.075 17.1235 14.3905 18.844 13.8356 20.229C13.3119 21.5394 11.7925 24.9327 10.3198 28.2087C8.85229 31.4847 7.33292 34.8673 6.80918 36.1671C6.34248 37.3336 5.82911 38.4203 4.65199 38.8784C4.3253 39.0063 4.02973 39.0382 3.75489 38.9743C3.67192 38.9583 3.58896 38.9264 3.5008 38.8891Z" fill="#ABB5DB" fill-opacity="0.56"/>
<path d="M0.254639 0.263672L0.560586 4.81283L28.0907 18.1673L31.6583 15.4506L0.254639 0.263672Z" fill="white"/>
<path d="M27.9869 18.4018L0.451578 5.04729C0.368609 5.01 0.311568 4.92477 0.306383 4.82889L0.000434835 0.279732C-0.00475072 0.189175 0.0367337 0.098618 0.109331 0.0453492C0.181929 -0.00791965 0.275269 -0.0132465 0.358238 0.0240416L31.762 15.211C31.8449 15.2483 31.8968 15.3282 31.9071 15.4187C31.9175 15.5093 31.876 15.5998 31.8034 15.6531L28.2358 18.3698C28.1684 18.4337 28.0698 18.4444 27.9869 18.4018Z" fill="#ABB5DB" fill-opacity="0.56"/>
<path d="M27.7949 16.3562L1.55084 3.71553C1.50936 3.69422 1.48862 3.64095 1.50936 3.59834C1.5301 3.55572 1.57677 3.53441 1.62344 3.55572L27.8675 16.1964C27.909 16.2177 27.9298 16.271 27.909 16.3136C27.8883 16.3615 27.8364 16.3775 27.7949 16.3562Z" fill="black"/>
</g>
</svg>
