<svg width="28" height="26" viewBox="0 0 28 26" fill="none" xmlns="http://www.w3.org/2000/svg">
<path d="M13.5733 24.0061C13.3088 22.4228 13.0239 20.8201 12.7817 19.2116C12.6741 18.4972 12.6237 17.7701 12.6015 17.0469C12.5763 16.2179 12.3592 15.4617 11.9503 14.7443C11.8205 14.5172 11.7391 14.2425 11.7119 13.9823C11.6131 13.0387 11.5472 12.0923 11.4668 11.1157C15.7758 11.1157 20.0247 11.1157 24.3308 11.1157C24.2397 12.2408 24.1544 13.3319 24.0624 14.423C23.8521 16.9178 23.638 19.4126 23.4248 21.9074C23.3918 22.2937 23.3667 22.681 23.3221 23.0654C23.2581 23.6275 22.8599 24.0595 22.3114 24.0624C19.4394 24.075 16.5684 24.0643 13.6964 24.0604C13.6683 24.0585 13.6392 24.0352 13.5733 24.0061ZM16.9056 13.5348C15.9134 13.1649 15.3649 12.5155 14.927 11.6118C14.5617 12.5776 13.9299 13.1436 13.0268 13.5571C13.9609 13.9551 14.5607 14.5599 14.956 15.5335C15.3233 14.5385 15.9589 13.9687 16.9056 13.5348Z" fill="#34B25F"/>
<path d="M12.0665 18.5458C12.4841 21.0551 12.8921 23.5072 13.3068 25.9971C12.7739 25.9971 12.2826 25.9971 11.7448 25.9971C11.7448 24.6585 11.7448 23.3373 11.7448 21.9783C11.5355 21.9783 11.3727 21.9783 11.1605 21.9783C11.1605 23.3111 11.1605 24.6313 11.1605 25.9903C10.7226 25.9903 10.3311 25.9903 9.89313 25.9903C9.89313 24.6556 9.89313 23.3354 9.89313 21.9773C9.68383 21.9773 9.52008 21.9773 9.30787 21.9773C9.30787 23.3101 9.30787 24.6303 9.30787 25.9894C8.8699 25.9894 8.47941 25.9894 8.04241 25.9894C8.04241 24.6556 8.04241 23.3363 8.04241 21.9773C7.83311 21.9773 7.66839 21.9773 7.46006 21.9773C7.46006 23.3072 7.46006 24.6284 7.46006 25.9884C7.02693 25.9884 6.63644 25.9884 6.18587 25.9884C6.18587 24.6536 6.18587 23.3198 6.18587 21.9628C5.97367 21.9628 5.8196 21.9628 5.60449 21.9628C5.60449 23.3082 5.60449 24.641 5.60449 26C5.16458 26 4.78475 26 4.34193 26C4.34193 24.6585 4.34193 23.3257 4.34193 21.9657C4.12585 21.9657 3.97179 21.9657 3.75958 21.9657C3.75958 23.3033 3.75958 24.6362 3.75958 25.9971C3.32258 25.9971 2.94275 25.9971 2.5009 25.9971C2.5009 24.6643 2.5009 23.3315 2.5009 21.9666C2.28773 21.954 2.13366 21.9453 1.91564 21.9317C1.91564 23.2956 1.91564 24.6274 1.91564 25.9932C1.24996 25.9932 0.646299 25.9932 0 25.9932C0.415686 23.5023 0.829434 21.027 1.24415 18.5448C4.87099 18.5458 8.4484 18.5458 12.0665 18.5458Z" fill="#34B25F"/>
<path d="M11.7063 17.1182L11.7063 17.1178C11.6937 15.2306 10.4204 13.7342 8.5672 13.5578L11.7063 17.1182ZM11.7063 17.1182C11.7076 17.2715 11.7076 17.4237 11.7075 17.5905H11.6916M11.7063 17.1182L11.6916 17.5905M11.6916 17.5905H11.6706M11.6916 17.5905H11.6706M11.6706 17.5905H11.6495M11.6706 17.5905H11.6495M11.6495 17.5905H11.6285M11.6495 17.5905H11.6285M11.6285 17.5905H11.6075M11.6285 17.5905H11.6075M11.6075 17.5905H11.5865M11.6075 17.5905H11.5865M11.5865 17.5905H11.5654M11.5865 17.5905H11.5654M11.5654 17.5905H11.5444M11.5654 17.5905H11.5444M11.5444 17.5905H11.5234M11.5444 17.5905H11.5234M11.5234 17.5905H11.5024M11.5234 17.5905H11.5024M11.5024 17.5905H11.4813M11.5024 17.5905H11.4813M11.4813 17.5905H11.4603M11.4813 17.5905H11.4603M11.4603 17.5905H11.4393M11.4603 17.5905H11.4393M11.4393 17.5905H11.4183M11.4393 17.5905H11.4183M11.4183 17.5905H11.3973M11.4183 17.5905H11.3973M11.3973 17.5905H11.3763M11.3973 17.5905H11.3763M11.3763 17.5905H11.3553M11.3763 17.5905H11.3553M11.3553 17.5905H11.3342M11.3553 17.5905H11.3342M11.3342 17.5905H11.3132M11.3342 17.5905H11.3132M11.3132 17.5905H11.2922M11.3132 17.5905H11.2922M11.2922 17.5905H11.2712M11.2922 17.5905H11.2712M11.2712 17.5905H11.2502M11.2712 17.5905H11.2502M11.2502 17.5905H11.2292M11.2502 17.5905H11.2292M11.2292 17.5905H11.2082M11.2292 17.5905H11.2082M11.2082 17.5905H11.1872M11.2082 17.5905H11.1872M11.1872 17.5905H11.1662M11.1872 17.5905H11.1662M11.1662 17.5905H11.1452M11.1662 17.5905H11.1452M11.1452 17.5905H11.1242M11.1452 17.5905H11.1242M11.1242 17.5905H11.1032M11.1242 17.5905H11.1032M11.1032 17.5905H11.0823M11.1032 17.5905H11.0823M11.0823 17.5905H11.0613M11.0823 17.5905H11.0613M11.0613 17.5905H11.0403M11.0613 17.5905H11.0403M11.0403 17.5905H11.0193M11.0403 17.5905H11.0193M11.0193 17.5905H10.9983M11.0193 17.5905H10.9983M10.9983 17.5905H10.9773M10.9983 17.5905H10.9773M10.9773 17.5905H10.9563M10.9773 17.5905H10.9563M10.9563 17.5905H10.9354M10.9563 17.5905H10.9354M10.9354 17.5905H10.9144M10.9354 17.5905H10.9144M10.9144 17.5905H10.8934M10.9144 17.5905H10.8934M10.8934 17.5905H10.8724M10.8934 17.5905H10.8724M10.8724 17.5905H10.8515M10.8724 17.5905H10.8515M10.8515 17.5905H10.8305M10.8515 17.5905H10.8305M10.8305 17.5905H10.8095M10.8305 17.5905H10.8095M10.8095 17.5905H10.7885M10.8095 17.5905H10.7885M10.7885 17.5905H10.7676M10.7885 17.5905H10.7676M10.7676 17.5905H10.7466M10.7676 17.5905H10.7466M10.7466 17.5905H10.7256M10.7466 17.5905H10.7256M10.7256 17.5905H10.7047M10.7256 17.5905H10.7047M10.7047 17.5905H10.6837M10.7047 17.5905H10.6837M10.6837 17.5905H10.6627M10.6837 17.5905H10.6627M10.6627 17.5905H10.6418M10.6627 17.5905H10.6418M10.6418 17.5905H10.6208M10.6418 17.5905H10.6208M10.6208 17.5905H10.5999M10.6208 17.5905H10.5999M10.5999 17.5905H10.5789M10.5999 17.5905H10.5789M10.5789 17.5905H10.558M10.5789 17.5905H10.558M10.558 17.5905H10.537M10.558 17.5905H10.537M10.537 17.5905H10.516M10.537 17.5905H10.516M10.516 17.5905H10.4951M10.516 17.5905H10.4951M10.4951 17.5905H10.4741M10.4951 17.5905H10.4741M10.4741 17.5905H10.4532M10.4741 17.5905H10.4532M10.4532 17.5905H10.4322M10.4532 17.5905H10.4322M10.4322 17.5905H10.4113M10.4322 17.5905H10.4113M10.4113 17.5905H10.3904M10.4113 17.5905H10.3904M10.3904 17.5905H10.3694M10.3904 17.5905H10.3694M10.3694 17.5905H10.3485M10.3694 17.5905H10.3485M10.3485 17.5905H10.3275M10.3485 17.5905H10.3275M10.3275 17.5905H10.3066M10.3275 17.5905H10.3066M10.3066 17.5905H10.2857M10.3066 17.5905H10.2857M10.2857 17.5905H10.2647M10.2857 17.5905H10.2647M10.2647 17.5905H10.2438M10.2647 17.5905H10.2438M10.2438 17.5905H10.2229M10.2438 17.5905H10.2229M10.2229 17.5905H10.2019M10.2229 17.5905H10.2019M10.2019 17.5905H10.181M10.2019 17.5905H10.181M10.181 17.5905H10.1601M10.181 17.5905H10.1601M10.1601 17.5905H10.1391M10.1601 17.5905H10.1391M10.1391 17.5905H10.1182M10.1391 17.5905H10.1182M10.1182 17.5905H10.0973M10.1182 17.5905H10.0973M10.0973 17.5905H10.0764M10.0973 17.5905H10.0764M10.0764 17.5905H10.0554M10.0764 17.5905H10.0554M10.0554 17.5905H10.0345M10.0554 17.5905H10.0345M10.0345 17.5905H10.0136M10.0345 17.5905H10.0136M10.0136 17.5905H9.99268M10.0136 17.5905H9.99268M9.99268 17.5905H9.97176M9.99268 17.5905H9.97176M9.97176 17.5905H9.95085M9.97176 17.5905H9.95085M9.95085 17.5905H9.92993M9.95085 17.5905H9.92993M9.92993 17.5905H9.90902M9.92993 17.5905H9.90902M9.90902 17.5905H9.88811M9.90902 17.5905H9.88811M9.88811 17.5905H9.8672M9.88811 17.5905H9.8672M9.8672 17.5905H9.84629M9.8672 17.5905H9.84629M9.84629 17.5905H9.82538M9.84629 17.5905H9.82538M9.82538 17.5905H9.80448M9.82538 17.5905H9.80448M9.80448 17.5905H9.78357M9.80448 17.5905H9.78357M9.78357 17.5905H9.76267M9.78357 17.5905H9.76267M9.76267 17.5905H9.74176M9.76267 17.5905H9.74176M9.74176 17.5905H9.72086M9.74176 17.5905H9.72086M9.72086 17.5905H9.69996M9.72086 17.5905H9.69996M9.69996 17.5905H9.67906M9.69996 17.5905H9.67906M9.67906 17.5905H9.65817M9.67906 17.5905H9.65817M9.65817 17.5905H9.63727M9.65817 17.5905H9.63727M9.63727 17.5905H9.61638M9.63727 17.5905H9.61638M9.61638 17.5905H9.59548M9.61638 17.5905H9.59548M9.59548 17.5905H9.57459M9.59548 17.5905H9.57459M9.57459 17.5905H9.5537M9.57459 17.5905H9.5537M9.5537 17.5905H9.53281M9.5537 17.5905H9.53281M9.53281 17.5905H9.51192M9.53281 17.5905H9.51192M9.51192 17.5905H9.49103M9.51192 17.5905H9.49103M9.49103 17.5905H9.47015M9.49103 17.5905H9.47015M9.47015 17.5905H9.44926M9.47015 17.5905H9.44926M9.44926 17.5905H9.42838M9.44926 17.5905H9.42838M9.42838 17.5905H9.4075M9.42838 17.5905H9.4075M9.4075 17.5905H9.38662M9.4075 17.5905H9.38662M9.38662 17.5905H9.36574M9.38662 17.5905H9.36574M9.36574 17.5905H9.34486M9.36574 17.5905H9.34486M9.34486 17.5905H9.32398M9.34486 17.5905H9.32398M9.32398 17.5905H9.3031M9.32398 17.5905H9.3031M9.3031 17.5905H9.28223M9.3031 17.5905H9.28223M9.28223 17.5905H9.26136M9.28223 17.5905H9.26136M9.26136 17.5905H9.24048M9.26136 17.5905H9.24048M9.24048 17.5905H9.21961M9.24048 17.5905H9.21961M9.21961 17.5905H9.19874M9.21961 17.5905H9.19874M9.19874 17.5905H9.17787M9.19874 17.5905H9.17787M9.17787 17.5905H9.15701M9.17787 17.5905H9.15701M9.15701 17.5905H9.13614M9.15701 17.5905H9.13614M9.13614 17.5905H9.11528M9.13614 17.5905H9.11528M9.11528 17.5905H9.09441M9.11528 17.5905H9.09441M9.09441 17.5905H9.07355M9.09441 17.5905H9.07355M9.07355 17.5905H9.05269M9.07355 17.5905H9.05269M9.05269 17.5905H9.03183M9.05269 17.5905H9.03183M9.03183 17.5905H9.01097M9.03183 17.5905H9.01097M9.01097 17.5905H8.99011M9.01097 17.5905H8.99011M8.99011 17.5905H8.96925M8.99011 17.5905H8.96925M8.96925 17.5905H8.9484M8.96925 17.5905H8.9484M8.9484 17.5905H8.92754M8.9484 17.5905H8.92754M8.92754 17.5905H8.90669M8.92754 17.5905H8.90669M8.90669 17.5905H8.88584M8.90669 17.5905H8.88584M8.88584 17.5905H8.86499M8.88584 17.5905H8.86499M8.86499 17.5905H8.84414M8.86499 17.5905H8.84414M8.84414 17.5905H8.82329M8.84414 17.5905H8.82329M8.82329 17.5905H8.80244M8.82329 17.5905H8.80244M8.80244 17.5905H8.7816M8.80244 17.5905H8.7816M8.7816 17.5905H8.76075M8.7816 17.5905H8.76075M8.76075 17.5905H8.73991M8.76075 17.5905H8.73991M8.73991 17.5905H8.71907M8.73991 17.5905H8.71907M8.71907 17.5905H8.69823M8.71907 17.5905H8.69823M8.69823 17.5905H8.67739M8.69823 17.5905H8.67739M8.67739 17.5905H8.65655M8.67739 17.5905H8.65655M8.65655 17.5905H8.63571M8.65655 17.5905H8.63571M8.63571 17.5905H8.61487M8.63571 17.5905H8.61487M8.61487 17.5905H8.59404M8.61487 17.5905H8.59404M8.59404 17.5905H8.5732M8.59404 17.5905H8.5732M8.5732 17.5905H8.55237M8.5732 17.5905H8.55237M8.55237 17.5905H8.53154M8.55237 17.5905H8.53154M8.53154 17.5905H8.5107M8.53154 17.5905H8.5107M8.5107 17.5905H8.48987M8.5107 17.5905H8.48987M8.48987 17.5905H8.46905M8.48987 17.5905H8.46905M8.46905 17.5905H8.44822M8.46905 17.5905H8.44822M8.44822 17.5905H8.42739M8.44822 17.5905H8.42739M8.42739 17.5905H8.40657M8.42739 17.5905H8.40657M8.40657 17.5905H8.38574M8.40657 17.5905H8.38574M8.38574 17.5905H8.36492M8.38574 17.5905H8.36492M8.36492 17.5905H8.3441M8.36492 17.5905H8.3441M8.3441 17.5905H8.32328M8.3441 17.5905H8.32328M8.32328 17.5905H8.30246M8.32328 17.5905H8.30246M8.30246 17.5905H8.28164M8.30246 17.5905H8.28164M8.28164 17.5905H8.26082M8.28164 17.5905H8.26082M8.26082 17.5905H8.24M8.26082 17.5905H8.24M8.24 17.5905H8.21919M8.24 17.5905H8.21919M8.21919 17.5905H8.19837M8.21919 17.5905H8.19837M8.19837 17.5905H8.17756M8.19837 17.5905H8.17756M8.17756 17.5905H8.15675M8.17756 17.5905H8.15675M8.15675 17.5905H8.13593M8.15675 17.5905H8.13593M8.13593 17.5905H8.11512M8.13593 17.5905H8.11512M8.11512 17.5905H8.09432M8.11512 17.5905H8.09432M8.09432 17.5905H8.07351M8.09432 17.5905H8.07351M8.07351 17.5905H8.0527M8.07351 17.5905H8.0527M8.0527 17.5905H8.03189M8.0527 17.5905H8.03189M8.03189 17.5905H8.01109M8.03189 17.5905H8.01109M8.01109 17.5905H7.99029M8.01109 17.5905H7.99029M7.99029 17.5905H7.96948M7.99029 17.5905H7.96948M7.96948 17.5905H7.94868M7.96948 17.5905H7.94868M7.94868 17.5905H7.92788M7.94868 17.5905H7.92788M7.92788 17.5905H7.90708M7.92788 17.5905H7.90708M7.90708 17.5905H7.88628M7.90708 17.5905H7.88628M7.88628 17.5905H7.86549M7.88628 17.5905H7.86549M7.86549 17.5905H7.84469M7.86549 17.5905H7.84469M7.84469 17.5905H7.82389M7.84469 17.5905H7.82389M7.82389 17.5905H7.8031M7.82389 17.5905H7.8031M7.8031 17.5905H7.78231M7.8031 17.5905H7.78231M7.78231 17.5905H7.76151M7.78231 17.5905H7.76151M7.76151 17.5905H7.74072M7.76151 17.5905H7.74072M7.74072 17.5905H7.71993M7.74072 17.5905H7.71993M7.71993 17.5905H7.69914M7.71993 17.5905H7.69914M7.69914 17.5905H7.67835M7.69914 17.5905H7.67835M7.67835 17.5905H7.65757M7.67835 17.5905H7.65757M7.65757 17.5905H7.63678M7.65757 17.5905H7.63678M7.63678 17.5905H7.616M7.63678 17.5905H7.616M7.616 17.5905H7.59521M7.616 17.5905H7.59521M7.59521 17.5905H7.57443M7.59521 17.5905H7.57443M7.57443 17.5905H7.55365M7.57443 17.5905H7.55365M7.55365 17.5905H7.53287M7.55365 17.5905H7.53287M7.53287 17.5905H7.51208M7.53287 17.5905H7.51208M7.51208 17.5905H7.49131M7.51208 17.5905H7.49131M7.49131 17.5905H7.47053M7.49131 17.5905H7.47053M7.47053 17.5905H7.44975M7.47053 17.5905H7.44975M7.44975 17.5905H7.42897M7.44975 17.5905H7.42897M7.42897 17.5905H7.4082M7.42897 17.5905H7.4082M7.4082 17.5905H7.38742M7.4082 17.5905H7.38742M7.38742 17.5905H7.36665M7.38742 17.5905H7.36665M7.36665 17.5905H7.34588M7.36665 17.5905H7.34588M7.34588 17.5905H7.32511M7.34588 17.5905H7.32511M7.32511 17.5905H7.30434M7.32511 17.5905H7.30434M7.30434 17.5905H7.28357M7.30434 17.5905H7.28357M7.28357 17.5905H7.2628M7.28357 17.5905H7.2628M7.2628 17.5905H7.24203M7.2628 17.5905H7.24203M7.24203 17.5905H7.22126M7.24203 17.5905H7.22126M7.22126 17.5905H7.2005M7.22126 17.5905H7.2005M7.2005 17.5905H7.17973M7.2005 17.5905H7.17973M7.17973 17.5905H7.15897M7.17973 17.5905H7.15897M7.15897 17.5905H7.13821M7.15897 17.5905H7.13821M7.13821 17.5905H7.11745M7.13821 17.5905H7.11745M7.11745 17.5905H7.09668M7.11745 17.5905H7.09668M7.09668 17.5905H7.07593M7.09668 17.5905H7.07593M7.07593 17.5905H7.05517M7.07593 17.5905H7.05517M7.05517 17.5905H7.03441M7.05517 17.5905H7.03441M7.03441 17.5905H7.01365M7.03441 17.5905H7.01365M7.01365 17.5905H6.99289M7.01365 17.5905H6.99289M6.99289 17.5905H6.97214M6.99289 17.5905H6.97214M6.97214 17.5905H6.95138M6.97214 17.5905H6.95138M6.95138 17.5905H6.93063M6.95138 17.5905H6.93063M6.93063 17.5905H6.90988M6.93063 17.5905H6.90988M6.90988 17.5905H6.88913M6.90988 17.5905H6.88913M6.88913 17.5905H6.86838M6.88913 17.5905H6.86838M6.86838 17.5905H6.84763M6.86838 17.5905H6.84763M6.84763 17.5905H6.82688M6.84763 17.5905H6.82688M6.82688 17.5905H6.80613M6.82688 17.5905H6.80613M6.80613 17.5905H6.78538M6.80613 17.5905H6.78538M6.78538 17.5905H6.76464M6.78538 17.5905H6.76464M6.76464 17.5905H6.74389M6.76464 17.5905H6.74389M6.74389 17.5905H6.72315M6.74389 17.5905H6.72315M6.72315 17.5905H6.7024M6.72315 17.5905H6.7024M6.7024 17.5905H6.68166M6.7024 17.5905H6.68166M6.68166 17.5905H6.66092M6.68166 17.5905H6.66092M6.66092 17.5905H6.64018M6.66092 17.5905H6.64018M6.64018 17.5905H6.61944M6.64018 17.5905H6.61944M6.61944 17.5905H6.5987M6.61944 17.5905H6.5987M6.5987 17.5905H6.57796M6.5987 17.5905H6.57796M6.57796 17.5905H6.55722M6.57796 17.5905H6.55722M6.55722 17.5905H6.53648M6.55722 17.5905H6.53648M6.53648 17.5905H6.51575M6.53648 17.5905H6.51575M6.51575 17.5905H6.49501M6.51575 17.5905H6.49501M6.49501 17.5905H6.47428M6.49501 17.5905H6.47428M6.47428 17.5905H6.45355M6.47428 17.5905H6.45355M6.45355 17.5905H6.43281M6.45355 17.5905H6.43281M6.43281 17.5905H6.41208M6.43281 17.5905H6.41208M6.41208 17.5905H6.39135M6.41208 17.5905H6.39135M6.39135 17.5905H6.37062M6.39135 17.5905H6.37062M6.37062 17.5905H6.34989M6.37062 17.5905H6.34989M6.34989 17.5905H6.32916M6.34989 17.5905H6.32916M6.32916 17.5905H6.30844M6.32916 17.5905H6.30844M6.30844 17.5905H6.28771M6.30844 17.5905H6.28771M6.28771 17.5905H6.26699M6.28771 17.5905H6.26699M6.26699 17.5905H6.24626M6.26699 17.5905H6.24626M6.24626 17.5905H6.22554M6.24626 17.5905H6.22554M6.22554 17.5905H6.20481M6.22554 17.5905H6.20481M6.20481 17.5905H6.18409M6.20481 17.5905H6.18409M6.18409 17.5905H6.16337M6.18409 17.5905H6.16337M6.16337 17.5905H6.14265M6.16337 17.5905H6.14265M6.14265 17.5905H6.12193M6.14265 17.5905H6.12193M6.12193 17.5905H6.10121M6.12193 17.5905H6.10121M6.10121 17.5905H6.08049M6.10121 17.5905H6.08049M6.08049 17.5905H6.05977M6.08049 17.5905H6.05977M6.05977 17.5905H6.03906M6.05977 17.5905H6.03906M6.03906 17.5905H6.01834M6.03906 17.5905H6.01834M6.01834 17.5905H5.99763M6.01834 17.5905H5.99763M5.99763 17.5905H5.97691M5.99763 17.5905H5.97691M5.97691 17.5905H5.9562M5.97691 17.5905H5.9562M5.9562 17.5905H5.93548M5.9562 17.5905H5.93548M5.93548 17.5905H5.91477M5.93548 17.5905H5.91477M5.91477 17.5905H5.89406M5.91477 17.5905H5.89406M5.89406 17.5905H5.87335M5.89406 17.5905H5.87335M5.87335 17.5905H5.85264M5.87335 17.5905H5.85264M5.85264 17.5905H5.83193M5.85264 17.5905H5.83193M5.83193 17.5905H5.81122M5.83193 17.5905H5.81122M5.81122 17.5905H5.79052M5.81122 17.5905H5.79052M5.79052 17.5905H5.76981M5.79052 17.5905H5.76981M5.76981 17.5905H5.7491M5.76981 17.5905H5.7491M5.7491 17.5905H5.7284M5.7491 17.5905H5.7284M5.7284 17.5905H5.70769M5.7284 17.5905H5.70769M5.70769 17.5905H5.68699M5.70769 17.5905H5.68699M5.68699 17.5905H5.66629M5.68699 17.5905H5.66629M5.66629 17.5905H5.64558M5.66629 17.5905H5.64558M5.64558 17.5905H5.62488M5.64558 17.5905H5.62488M5.62488 17.5905H5.60418M5.62488 17.5905H5.60418M5.60418 17.5905H5.58348M5.60418 17.5905H5.58348M5.58348 17.5905H5.56278M5.58348 17.5905H5.56278M5.56278 17.5905H5.54208M5.56278 17.5905H5.54208M5.54208 17.5905H5.52139M5.54208 17.5905H5.52139M5.52139 17.5905H5.50069M5.52139 17.5905H5.50069M5.50069 17.5905H5.47999M5.50069 17.5905H5.47999M5.47999 17.5905H5.4593M5.47999 17.5905H5.4593M5.4593 17.5905H5.4386M5.4593 17.5905H5.4386M5.4386 17.5905H5.41791M5.4386 17.5905H5.41791M5.41791 17.5905H5.39721M5.41791 17.5905H5.39721M5.39721 17.5905H5.37652M5.39721 17.5905H5.37652M5.37652 17.5905H5.35583M5.37652 17.5905H5.35583M5.35583 17.5905H5.33514M5.35583 17.5905H5.33514M5.33514 17.5905H5.31445M5.33514 17.5905H5.31445M5.31445 17.5905H5.29376M5.31445 17.5905H5.29376M5.29376 17.5905H5.27307M5.29376 17.5905H5.27307M5.27307 17.5905H5.25238M5.27307 17.5905H5.25238M5.25238 17.5905H5.23169M5.25238 17.5905H5.23169M5.23169 17.5905H5.211M5.23169 17.5905H5.211M5.211 17.5905H5.19032M5.211 17.5905H5.19032M5.19032 17.5905H5.16963M5.19032 17.5905H5.16963M5.16963 17.5905H5.14895M5.16963 17.5905H5.14895M5.14895 17.5905H5.12826M5.14895 17.5905H5.12826M5.12826 17.5905H5.10758M5.12826 17.5905H5.10758M5.10758 17.5905H5.08689M5.10758 17.5905H5.08689M5.08689 17.5905H5.06621M5.08689 17.5905H5.06621M5.06621 17.5905H5.04553M5.06621 17.5905H5.04553M5.04553 17.5905H5.02485M5.04553 17.5905H5.02485M5.02485 17.5905H5.00417M5.02485 17.5905H5.00417M5.00417 17.5905H4.98349M5.00417 17.5905H4.98349M4.98349 17.5905H4.96281M4.98349 17.5905H4.96281M4.96281 17.5905H4.94213M4.96281 17.5905H4.94213M4.94213 17.5905H4.92145M4.94213 17.5905H4.92145M4.92145 17.5905H4.90077M4.92145 17.5905H4.90077M4.90077 17.5905H4.8801M4.90077 17.5905H4.8801M4.8801 17.5905H4.85942M4.8801 17.5905H4.85942M4.85942 17.5905H4.83874M4.85942 17.5905H4.83874M4.83874 17.5905H4.81807M4.83874 17.5905H4.81807M4.81807 17.5905H4.7974M4.81807 17.5905H4.7974M4.7974 17.5905H4.77672M4.7974 17.5905H4.77672M4.77672 17.5905H4.75605M4.77672 17.5905H4.75605M4.75605 17.5905H4.73538M4.75605 17.5905H4.73538M4.73538 17.5905H4.7147M4.73538 17.5905H4.7147M4.7147 17.5905H4.69403M4.7147 17.5905H4.69403M4.69403 17.5905H4.67336M4.69403 17.5905H4.67336M4.67336 17.5905H4.65269M4.67336 17.5905H4.65269M4.65269 17.5905H4.63202M4.65269 17.5905H4.63202M4.63202 17.5905H4.61135M4.63202 17.5905H4.61135M4.61135 17.5905H4.59069M4.61135 17.5905H4.59069M4.59069 17.5905H4.57002M4.59069 17.5905H4.57002M4.57002 17.5905H4.54935M4.57002 17.5905H4.54935M4.54935 17.5905H4.52868M4.54935 17.5905H4.52868M4.52868 17.5905H4.50802M4.52868 17.5905H4.50802M4.50802 17.5905H4.48735M4.50802 17.5905H4.48735M4.48735 17.5905H4.46669M4.48735 17.5905H4.46669M4.46669 17.5905H4.44603M4.46669 17.5905H4.44603M4.44603 17.5905H4.42536M4.44603 17.5905H4.42536M4.42536 17.5905H4.4047M4.42536 17.5905H4.4047M4.4047 17.5905H4.38404M4.4047 17.5905H4.38404M4.38404 17.5905H4.36337M4.38404 17.5905H4.36337M4.36337 17.5905H4.34271M4.36337 17.5905H4.34271M4.34271 17.5905H4.32205M4.34271 17.5905H4.32205M4.32205 17.5905H4.30139M4.32205 17.5905H4.30139M4.30139 17.5905H4.28073M4.30139 17.5905H4.28073M4.28073 17.5905H4.26007M4.28073 17.5905H4.26007M4.26007 17.5905H4.23942M4.26007 17.5905H4.23942M4.23942 17.5905H4.21876M4.23942 17.5905H4.21876M4.21876 17.5905H4.1981M4.21876 17.5905H4.1981M4.1981 17.5905H4.17744M4.1981 17.5905H4.17744M4.17744 17.5905H4.15679M4.17744 17.5905H4.15679M4.15679 17.5905H4.13613M4.15679 17.5905H4.13613M4.13613 17.5905H4.11548M4.13613 17.5905H4.11548M4.11548 17.5905H4.09482M4.11548 17.5905H4.09482M4.09482 17.5905H4.07417M4.09482 17.5905H4.07417M4.07417 17.5905H4.05351M4.07417 17.5905H4.05351M4.05351 17.5905H4.03286M4.05351 17.5905H4.03286M4.03286 17.5905H4.01221M4.03286 17.5905H4.01221M4.01221 17.5905H3.99156M4.01221 17.5905H3.99156M3.99156 17.5905H3.9709M3.99156 17.5905H3.9709M3.9709 17.5905H3.95025M3.9709 17.5905H3.95025M3.95025 17.5905H3.9296M3.95025 17.5905H3.9296M3.9296 17.5905H3.90895M3.9296 17.5905H3.90895M3.90895 17.5905H3.8883M3.90895 17.5905H3.8883M3.8883 17.5905H3.86765M3.8883 17.5905H3.86765M3.86765 17.5905H3.847M3.86765 17.5905H3.847M3.847 17.5905H3.82636M3.847 17.5905H3.82636M3.82636 17.5905H3.80571M3.82636 17.5905H3.80571M3.80571 17.5905H3.78506M3.80571 17.5905H3.78506M3.78506 17.5905H3.76442M3.78506 17.5905H3.76442M3.76442 17.5905H3.74377M3.76442 17.5905H3.74377M3.74377 17.5905H3.72312M3.74377 17.5905H3.72312M3.72312 17.5905H3.70248M3.72312 17.5905H3.70248M3.70248 17.5905H3.68183M3.70248 17.5905H3.68183M3.68183 17.5905H3.66119M3.68183 17.5905H3.66119M3.66119 17.5905H3.64055M3.66119 17.5905H3.64055M3.64055 17.5905H3.6199M3.64055 17.5905H3.6199M3.6199 17.5905H3.59926M3.6199 17.5905H3.59926M3.59926 17.5905H3.57862M3.59926 17.5905H3.57862M3.57862 17.5905H3.55798M3.57862 17.5905H3.55798M3.55798 17.5905H3.53733M3.55798 17.5905H3.53733M3.53733 17.5905H3.51669M3.53733 17.5905H3.51669M3.51669 17.5905H3.49605M3.51669 17.5905H3.49605M3.49605 17.5905H3.47541M3.49605 17.5905H3.47541M3.47541 17.5905H3.45477M3.47541 17.5905H3.45477M3.45477 17.5905H3.43413M3.45477 17.5905H3.43413M3.43413 17.5905H3.41349M3.43413 17.5905H3.41349M3.41349 17.5905H3.39286M3.41349 17.5905H3.39286M3.39286 17.5905H3.37222M3.39286 17.5905H3.37222M3.37222 17.5905H3.35158M3.37222 17.5905H3.35158M3.35158 17.5905H3.33094M3.35158 17.5905H3.33094M3.33094 17.5905H3.31031M3.33094 17.5905H3.31031M3.31031 17.5905H3.28967M3.31031 17.5905H3.28967M3.28967 17.5905H3.26903M3.28967 17.5905H3.26903M3.26903 17.5905H3.2484M3.26903 17.5905H3.2484M3.2484 17.5905H3.22776M3.2484 17.5905H3.22776M3.22776 17.5905H3.20713M3.22776 17.5905H3.20713M3.20713 17.5905H3.1865M3.20713 17.5905H3.1865M3.1865 17.5905H3.16586M3.1865 17.5905H3.16586M3.16586 17.5905H3.14523M3.16586 17.5905H3.14523M3.14523 17.5905H3.1246M3.14523 17.5905H3.1246M3.1246 17.5905H3.10396M3.1246 17.5905H3.10396M3.10396 17.5905H3.08333M3.10396 17.5905H3.08333M3.08333 17.5905H3.0627M3.08333 17.5905H3.0627M3.0627 17.5905H3.04207M3.0627 17.5905H3.04207M3.04207 17.5905H3.02144M3.04207 17.5905H3.02144M3.02144 17.5905H3.00081M3.02144 17.5905H3.00081M3.00081 17.5905H2.98018M3.00081 17.5905H2.98018M2.98018 17.5905H2.95955M2.98018 17.5905H2.95955M2.95955 17.5905H2.93892M2.95955 17.5905H2.93892M2.93892 17.5905H2.91829M2.93892 17.5905H2.91829M2.91829 17.5905H2.89766M2.91829 17.5905H2.89766M2.89766 17.5905H2.87703M2.89766 17.5905H2.87703M2.87703 17.5905H2.8564M2.87703 17.5905H2.8564M2.8564 17.5905H2.83577M2.8564 17.5905H2.83577M2.83577 17.5905H2.81515M2.83577 17.5905H2.81515M2.81515 17.5905H2.79452M2.81515 17.5905H2.79452M2.79452 17.5905H2.77389M2.79452 17.5905H2.77389M2.77389 17.5905H2.75327M2.77389 17.5905H2.75327M2.75327 17.5905H2.73264M2.75327 17.5905H2.73264M2.73264 17.5905H2.71201M2.73264 17.5905H2.71201M2.71201 17.5905H2.69139M2.71201 17.5905H2.69139M2.69139 17.5905H2.67076M2.69139 17.5905H2.67076M2.67076 17.5905H2.65014M2.67076 17.5905H2.65014M2.65014 17.5905H2.62952M2.65014 17.5905H2.62952M2.62952 17.5905H2.60889M2.62952 17.5905H2.60889M2.60889 17.5905H2.58827M2.60889 17.5905H2.58827M2.58827 17.5905H2.56764M2.58827 17.5905H2.56764M2.56764 17.5905H2.54702M2.56764 17.5905H2.54702M2.54702 17.5905H2.5264M2.54702 17.5905H2.5264M2.5264 17.5905H2.50578M2.5264 17.5905H2.50578M2.50578 17.5905H2.48515M2.50578 17.5905H2.48515M2.48515 17.5905H2.46453M2.48515 17.5905H2.46453M2.46453 17.5905H2.44391M2.46453 17.5905H2.44391M2.44391 17.5905H2.42329M2.44391 17.5905H2.42329M2.42329 17.5905H2.40267M2.42329 17.5905H2.40267M2.40267 17.5905H2.38205M2.40267 17.5905H2.38205M2.38205 17.5905H2.36143M2.38205 17.5905H2.36143M2.36143 17.5905H2.34081M2.36143 17.5905H2.34081M2.34081 17.5905H2.32019M2.34081 17.5905H2.32019M2.32019 17.5905H2.29957M2.32019 17.5905H2.29957M2.29957 17.5905H2.27895M2.29957 17.5905H2.27895M2.27895 17.5905H2.25833M2.27895 17.5905H2.25833M2.25833 17.5905H2.23771M2.25833 17.5905H2.23771M2.23771 17.5905H2.21709M2.23771 17.5905H2.21709M2.21709 17.5905H2.19648M2.21709 17.5905H2.19648M2.19648 17.5905H2.17586M2.19648 17.5905H2.17586M2.17586 17.5905H2.15524M2.17586 17.5905H2.15524M2.15524 17.5905H2.13462M2.15524 17.5905H2.13462M2.13462 17.5905H2.11401M2.13462 17.5905H2.11401M2.11401 17.5905H2.09339M2.11401 17.5905H2.09339M2.09339 17.5905H2.07277M2.09339 17.5905H2.07277M2.07277 17.5905H2.05216M2.07277 17.5905H2.05216M2.05216 17.5905H2.03154M2.05216 17.5905H2.03154M2.03154 17.5905H2.01093M2.03154 17.5905H2.01093M2.01093 17.5905H1.99031M2.01093 17.5905H1.99031M1.99031 17.5905H1.9697M1.99031 17.5905H1.9697M1.9697 17.5905H1.94908M1.9697 17.5905H1.94908M1.94908 17.5905H1.92847M1.94908 17.5905H1.92847M1.92847 17.5905H1.90785M1.92847 17.5905H1.90785M1.90785 17.5905H1.88724M1.90785 17.5905H1.88724M1.88724 17.5905H1.86662M1.88724 17.5905H1.86662M1.86662 17.5905H1.84601M1.86662 17.5905H1.84601M1.84601 17.5905H1.8254M1.84601 17.5905H1.8254M1.8254 17.5905H1.80478M1.8254 17.5905H1.80478M1.80478 17.5905H1.78417M1.80478 17.5905H1.78417M1.78417 17.5905H1.76356M1.78417 17.5905H1.76356M1.76356 17.5905H1.74294M1.76356 17.5905H1.74294M1.74294 17.5905H1.72233M1.74294 17.5905H1.72233M1.72233 17.5905H1.70172M1.72233 17.5905H1.70172M1.70172 17.5905H1.68111M1.70172 17.5905H1.68111M1.68111 17.5905H1.66049M1.68111 17.5905H1.66049M1.66049 17.5905H1.63988M1.66049 17.5905H1.63988M1.63988 17.5905H1.62381M1.63988 17.5905H1.62381M1.62381 17.5905C1.34253 15.6056 2.72737 13.7542 4.76137 13.5558L1.62381 17.5905ZM4.76143 13.5557C6.01843 13.4335 7.3082 13.4381 8.56715 13.5578L4.76143 13.5557Z" stroke="#34B25F" stroke-width="0.6"/>
<path d="M19.6197 8.83838C21.1972 8.83838 22.6332 8.83741 24.0692 8.83935C24.8318 8.84033 25.1671 9.20726 24.9742 9.93143C24.9151 10.1528 24.6148 10.3178 24.4055 10.4838C24.3454 10.5323 24.2175 10.4974 24.1206 10.4974C19.9715 10.4974 15.8224 10.4983 11.6733 10.4964C11.0357 10.4964 10.8167 10.2974 10.8012 9.72758C10.7838 9.08883 11.0173 8.84033 11.6568 8.83935C13.804 8.83644 15.9512 8.83159 18.0985 8.84518C18.4037 8.84712 18.6014 8.75102 18.799 8.52387C20.2428 6.8678 21.7001 5.22337 23.1536 3.57507C23.2175 3.50226 23.2708 3.38092 23.3464 3.36539C23.5547 3.32365 23.7727 3.32559 23.9859 3.31006C23.9743 3.51197 24.0411 3.77892 23.9374 3.90415C23.2689 4.71374 22.5635 5.4913 21.8697 6.27953C21.1478 7.10077 20.4259 7.92104 19.6197 8.83838Z" fill="#34B25F"/>
<path d="M17.9954 8.22785L17.9936 7.92785C16.367 7.93755 14.7398 7.93378 13.1116 7.93001C12.8484 7.9294 12.5851 7.92879 12.3218 7.92823C12.3264 7.32818 12.8439 6.86926 13.5263 6.97684C13.6816 7.00139 13.8665 7.01806 14.0435 6.94596C14.233 6.86877 14.3548 6.71618 14.446 6.53702L14.4463 6.53645C14.6228 6.1878 14.9322 6.01636 15.3766 6.0058L15.3768 6.00579C15.4687 6.00356 15.5839 5.99434 15.6966 5.9675C15.802 5.94237 15.9452 5.89272 16.0538 5.78181L16.0545 5.78112C16.4299 5.39527 16.6394 5.24606 16.8358 5.20074C17.0273 5.15655 17.2673 5.19786 17.7475 5.39351L17.9153 5.46185L18.0539 5.3452C18.5061 4.96457 18.7994 4.83258 19.0447 4.83007C19.2875 4.82758 19.5637 4.95129 19.9852 5.30324C20.0867 5.38799 20.2074 5.42547 20.3146 5.44283C19.6183 6.23502 18.9237 7.02515 18.217 7.80396L18.2169 7.80404C18.1907 7.83297 18.1471 7.86735 18.0963 7.8937C18.0432 7.92122 18.0062 7.92777 17.9935 7.92785L17.9954 8.22785ZM17.9954 8.22785C18.1466 8.22688 18.3336 8.12204 18.4392 8.00555L13.573 6.6805C12.6186 6.53004 11.8754 7.28138 12.046 8.19387C12.0542 8.19745 12.0625 8.20172 12.0708 8.20601C12.092 8.21687 12.1133 8.22785 12.1341 8.22785C12.4596 8.2285 12.7851 8.22925 13.1105 8.23C14.7388 8.23378 16.3674 8.23756 17.9954 8.22785ZM12.1341 7.92785C12.1343 7.92785 12.1345 7.92785 12.1347 7.92785H12.1341ZM17.5386 5.67508L17.3564 5.46368L17.1324 5.63008C17.0425 5.69684 16.9498 5.76585 16.8555 5.83602C16.7401 5.92193 16.6223 6.00958 16.5046 6.09694L16.2193 6.30871L16.4759 6.55448C16.5514 6.62678 16.6244 6.69665 16.6939 6.76307C16.8078 6.87205 16.9121 6.97178 17.0016 7.0579L17.2091 7.25737L17.417 7.05836C17.6128 6.87091 17.7932 6.69804 17.9298 6.56695L18.1342 6.37095L17.9503 6.15563C17.801 5.98081 17.6369 5.78917 17.5386 5.67508Z" stroke="#34B25F" stroke-width="0.6"/>
<path d="M7.37103 12.6C6.88074 12.6 6.42145 12.6 5.93309 12.6C5.92049 12.4563 5.90111 12.3321 5.90111 12.2078C5.89917 8.45886 5.89433 4.70989 5.9108 0.961892C5.91177 0.697852 6.00673 0.360037 6.18502 0.187247C6.60458 -0.219491 7.30223 0.0804659 7.39041 0.663877C7.40495 0.759008 7.4001 0.857052 7.4001 0.954126C7.4001 4.68659 7.4001 8.41906 7.39816 12.1515C7.39913 12.2942 7.38169 12.436 7.37103 12.6Z" fill="#34B25F"/>
<path d="M20.917 8.23948C21.3898 7.70655 21.7629 7.26584 22.1582 6.84745C22.3888 6.6038 23.3646 6.60962 23.7532 6.82803C24.1708 7.06198 24.5244 7.64636 24.446 8.02398C24.4285 8.1094 24.2861 8.2288 24.2008 8.22977C23.1553 8.24433 22.1098 8.23948 20.917 8.23948Z" fill="#34B25F"/>
<path d="M3.62758 9.69172C3.38922 9.92761 2.99291 10.3188 2.73129 10.577C2.48324 10.3188 2.09662 9.91693 1.83984 9.65095C2.08596 9.40924 2.48324 9.01997 2.73904 8.76855C2.98516 9.02386 3.37081 9.42477 3.62758 9.69172Z" fill="#34B25F"/>
<path d="M23.1475 1.33755C22.8975 1.5715 22.4915 1.95105 22.2318 2.19277C21.9895 1.94329 21.6107 1.55499 21.3413 1.27736C21.5816 1.04439 21.9779 0.658036 22.2376 0.406616C22.4779 0.652212 22.8665 1.05021 23.1475 1.33755Z" fill="#34B25F"/>
<path d="M27.5013 18.9593C27.2454 19.2195 26.8666 19.6049 26.5914 19.8854C26.3269 19.6136 25.9441 19.2195 25.668 18.936C25.9218 18.6836 26.3046 18.3041 26.5914 18.0187C26.8433 18.2798 27.2241 18.6739 27.5013 18.9593Z" fill="#34B25F"/>
<path d="M27.5013 18.9593C27.2454 19.2195 26.8666 19.6049 26.5914 19.8854C26.3269 19.6136 25.9441 19.2195 25.668 18.936C25.9218 18.6836 26.3046 18.3041 26.5914 18.0187C26.8433 18.2798 27.2241 18.6739 27.5013 18.9593Z" fill="#34B25F"/>
<path d="M12.7388 2.57041C13.0043 2.30346 13.388 1.91808 13.6515 1.6521C13.9228 1.93264 14.3085 2.33064 14.5459 2.57527C14.3124 2.81989 13.9277 3.22372 13.6564 3.50911C13.4025 3.2509 13.0236 2.86163 12.7388 2.57041Z" fill="#34B25F"/>
<path d="M16.9056 13.5348C15.959 13.9697 15.3233 14.5395 14.957 15.5336C14.5607 14.5609 13.9619 13.9552 13.0278 13.5572C13.9309 13.1446 14.5627 12.5777 14.928 11.6118C15.365 12.5156 15.9144 13.165 16.9056 13.5348Z" fill="#34B25F"/>
<path d="M17.3115 5.87085C17.4093 5.98443 17.5731 6.17566 17.7223 6.35039C17.5857 6.48144 17.4055 6.65423 17.2097 6.84158C17.0654 6.70374 16.8822 6.52804 16.6836 6.33777C16.8968 6.17954 17.1128 6.0184 17.3115 5.87085Z" fill="#34B25F"/>
</svg>
