<svg width="55" height="54" viewBox="0 0 55 54" fill="none" xmlns="http://www.w3.org/2000/svg">
<path fill-rule="evenodd" clip-rule="evenodd" d="M22.6212 31.4091C21.6461 31.3404 20.1958 30.1843 19.1832 30.328C17.4642 30.578 16.8641 30.9279 14.9512 30.5967C9.7379 29.7281 6.35611 24.5164 7.5438 19.4859C8.7815 14.2055 14.1136 11.2309 19.0582 12.6869C25.4217 14.5492 27.9158 22.273 23.4526 27.5847C22.6025 28.5721 22.89 29.7969 22.6212 31.4091ZM23.8777 32.3277L24.1277 32.2027C25.1216 31.8653 30.9163 32.3277 33.1854 32.0778V30.4468L24.059 30.4655C24.1277 28.872 24.309 28.2159 25.2842 27.4722L33.2042 27.416L33.1854 25.8037H26.1468C26.3593 24.8289 26.8032 23.979 26.9282 22.7917L33.1979 22.7729L33.1792 21.1794C31.7415 21.0044 28.9598 21.2357 27.6658 21.1419C27.4533 21.1232 27.4533 21.1044 27.2595 21.0732L27.0282 21.0044C26.7782 19.9046 26.6719 18.9672 26.3531 17.7799H37.2298V26.9036C37.7112 27.0973 38.205 27.0285 38.7363 26.9723L38.7551 16.3239C37.2111 16.1302 30.5163 16.2677 28.1221 16.2864C25.5154 16.2864 25.6217 16.5364 25.2842 15.5928C24.9279 15.3428 24.0965 13.8743 22.0961 12.6182C14.1324 7.6377 4.01823 14.9179 6.33736 24.0602C7.18749 27.3722 9.31284 29.6906 11.7945 30.8655L11.7757 46.9943L22.3899 46.9255L21.6836 45.4757L13.3197 45.4383L13.3385 31.5653C16.1014 32.0465 16.1389 32.0965 19.0457 31.7091C19.9145 31.5841 22.6962 32.9651 23.7777 33.2838L23.8777 32.3277Z" fill="#34B25F"/>
<path fill-rule="evenodd" clip-rule="evenodd" d="M29.9412 41.2018C33.1855 40.2644 34.0856 45.1137 31.2539 45.876C28.0971 46.7322 26.7657 42.0891 29.9412 41.2018ZM26.7532 37.3586L27.0532 38.5459L25.5842 40.0519L23.884 39.7145L23.1401 41.5892L24.5216 42.4391L24.5403 44.67L23.0901 45.4324L23.8902 47.4133L25.5905 47.0384C26.0718 47.5883 26.6344 48.0632 27.0782 48.5944L26.7407 50.2254L28.616 50.9503L29.4661 49.5505L31.5915 49.5317C32.104 50.0629 32.104 50.6503 32.7104 51.0003C32.7291 50.9628 32.7792 50.9315 32.7979 50.9128L34.4107 50.2066C34.0731 47.7633 33.5418 49.1943 35.4921 47.0696C36.1484 47.0321 36.5173 47.2633 37.1424 47.3508C37.5299 46.9259 37.8362 46.0573 37.9925 45.4761L36.5735 44.645V42.4328L37.9925 41.5267L37.2861 39.6645L35.4608 40.0519C34.9983 39.1146 34.767 39.2208 34.0419 38.5272L34.3982 36.8649L32.5041 36.14L31.5977 37.5023C28.641 37.5898 29.9349 37.8023 28.5847 36.14C27.1407 36.49 26.7157 36.7024 26.7532 37.3586Z" fill="#34B25F"/>
<path fill-rule="evenodd" clip-rule="evenodd" d="M14.5261 23.8606C13.3946 25.2979 10.4691 23.7919 10.7192 27.1226L22.3586 27.1414C22.4648 24.2355 20.5333 25.0854 18.5642 24.0043C18.4204 22.6233 18.883 23.4169 19.7144 21.7359C20.9896 19.1301 20.1207 15.5181 16.5764 15.4681C12.4132 15.4306 11.9319 20.1799 13.8822 22.642C14.4323 23.3169 14.5261 22.817 14.5261 23.8606Z" fill="#34B25F"/>
<path fill-rule="evenodd" clip-rule="evenodd" d="M42.1306 34.6526C41.2992 37.5022 36.9048 36.4211 37.7737 33.3591C38.5363 30.5782 42.962 31.8343 42.1306 34.6526ZM35.5546 32.1717C35.0232 33.4466 35.2858 32.8966 33.9043 33.2716L33.923 34.8463C34.5794 35.0088 35.467 34.5776 35.8171 36.7586L35.1608 37.6647C35.3545 38.1458 35.8546 38.5145 36.2234 38.852C36.5985 38.677 36.9173 38.4458 37.2361 38.0896L38.9176 38.7458L39.0926 40.0893L40.7554 40.1081L40.9492 38.777C43.6434 37.6959 42.2056 38.3708 43.7496 38.8645L44.7748 37.8521C44.0809 36.1899 43.6746 37.6209 44.581 35.0901L46 34.8089L45.9437 33.1966C45.7312 33.1778 45.2686 33.1404 45.0936 33.1091C44.3685 32.9341 44.7936 33.1279 44.5623 32.7529C43.5496 31.1781 44.3685 31.1594 44.756 30.272L43.7809 29.2097C42.5932 29.5659 43.1808 30.2345 41.9368 29.7034C40.2866 28.9785 41.2805 29.6846 40.7116 28.0224C38.4238 27.9849 39.3114 27.8474 38.8488 29.3347L37.2173 29.9721C36.8985 29.6534 36.5985 29.4409 36.2047 29.2472C35.7608 29.5659 35.4233 29.9533 35.0857 30.3658C36.0171 31.4969 35.8609 31.4094 35.5546 32.1717Z" fill="#34B25F"/>
<path fill-rule="evenodd" clip-rule="evenodd" d="M25.6842 35.1838L25.5654 35.1463L15.32 35.1276L15.3013 36.7961L25.7217 36.7773L25.6842 35.1838Z" fill="#34B25F"/>
<path fill-rule="evenodd" clip-rule="evenodd" d="M15.3764 41.7516H22.0212L22.04 40.2644L15.3577 40.2456L15.3764 41.7516Z" fill="#34B25F"/>
<path fill-rule="evenodd" clip-rule="evenodd" d="M15.3574 40.2456L22.0398 40.2644L22.021 41.7517H15.3762L15.3574 40.2456ZM15.2699 41.8079C16.0826 41.9829 21.1896 41.9704 22.1835 41.8454L22.096 40.1082L15.2324 40.1269L15.2699 41.8079Z" fill="#34B25F"/>
<path d="M51.6147 46.835C51.1039 47.3546 50.3473 48.1242 49.7977 48.6844C49.2694 48.1416 48.5051 47.3546 47.9536 46.7885C48.4606 46.2845 49.2249 45.5265 49.7977 44.9565C50.3008 45.478 51.0613 46.2651 51.6147 46.835Z" fill="#34B25F"/>
<path d="M3.66111 34.8785C3.15026 35.398 2.39365 36.1676 1.8441 36.7279C1.31583 36.1851 0.551488 35.398 0 34.832C0.506982 34.3279 1.27132 33.5699 1.8441 33C2.34721 33.5215 3.10768 34.3085 3.66111 34.8785Z" fill="#34B25F"/>
<path d="M29.8916 1.87848C29.3807 2.39802 28.6241 3.16764 28.0746 3.72788C27.5463 3.18508 26.782 2.39802 26.2305 1.83196C26.7375 1.32793 27.5018 0.569942 28.0746 0C28.5777 0.521477 29.3382 1.30854 29.8916 1.87848Z" fill="#34B25F"/>
</svg>
