<svg width="61" height="52" viewBox="0 0 61 52" fill="none" xmlns="http://www.w3.org/2000/svg">
<rect width="60.2784" height="51.3114" rx="4" fill="#F9F9FF"/>
<path d="M30.143 32.8089C32.2304 32.8089 34.3173 32.8094 36.4047 32.8089C37.049 32.8089 37.3618 32.492 37.3622 31.8411C37.3626 31.0009 37.3635 30.1608 37.3618 29.3206C37.3606 28.6962 37.0419 28.3751 36.4237 28.3747C35.2872 28.3739 34.1504 28.3768 33.0139 28.3714C32.8796 28.371 32.8094 28.409 32.7453 28.5326C32.4391 29.1243 31.9518 29.462 31.2795 29.4768C30.536 29.4938 29.7917 29.4921 29.0479 29.4802C28.3416 29.469 27.8399 29.1198 27.5118 28.5003C27.48 28.44 27.3829 28.378 27.3155 28.3776C26.1377 28.3701 24.9595 28.3689 23.7817 28.3743C23.2775 28.3768 22.9325 28.7103 22.9263 29.2153C22.9155 30.124 22.9147 31.0336 22.9259 31.9423C22.9329 32.494 23.278 32.8098 23.84 32.8102C25.941 32.8114 28.042 32.8106 30.143 32.8106C30.143 32.8098 30.143 32.8094 30.143 32.8089ZM26.2588 31.1431C26.2604 30.8493 26.5167 30.5926 26.8113 30.5902C27.1126 30.5877 27.3758 30.8567 27.368 31.1592C27.3605 31.4568 27.1043 31.7022 26.8055 31.6977C26.5072 31.6932 26.2571 31.4394 26.2588 31.1431ZM24.5954 31.6977C24.2991 31.6989 24.0408 31.4473 24.0363 31.1534C24.0317 30.8522 24.2987 30.5856 24.6004 30.5906C24.8975 30.5951 25.1463 30.8497 25.1455 31.1485C25.1442 31.4477 24.895 31.6965 24.5954 31.6977Z" fill="#9F9CCE" fill-opacity="0.36"/>
<path d="M31.8081 23.9301C32.0883 23.9301 32.3416 23.9301 32.5945 23.9301C33.0557 23.9305 33.5173 23.933 33.9785 23.9309C34.2777 23.9297 34.4447 23.8193 34.5459 23.573C34.6459 23.3292 34.5695 23.1358 34.3918 22.9585C33.1103 21.6795 31.8317 20.3967 30.5497 19.1177C30.3018 18.8706 29.9918 18.8668 29.7443 19.1136C28.4512 20.4009 27.1618 21.6919 25.8708 22.9817C25.696 23.156 25.6522 23.3552 25.7485 23.5854C25.8481 23.8226 26.0241 23.9317 26.2808 23.9309C26.9279 23.9284 27.5755 23.9313 28.2227 23.9321C28.2975 23.9321 28.3723 23.9321 28.4805 23.9321C28.4805 24.0272 28.4805 24.1061 28.4805 24.1851C28.4805 25.3624 28.4801 26.5398 28.481 27.7168C28.481 28.1643 28.6917 28.3743 29.1356 28.3743C29.8104 28.3743 30.4853 28.3763 31.1601 28.3755C31.5874 28.3751 31.8069 28.1561 31.8073 27.7263C31.8089 26.5423 31.8077 25.3579 31.8081 24.1739C31.8081 24.1053 31.8081 24.0367 31.8081 23.9301Z" fill="#9F9CCE" fill-opacity="0.36"/>
</svg>
