<svg width="32" height="41" viewBox="0 0 32 41" fill="none" xmlns="http://www.w3.org/2000/svg">
<g opacity="0.28">
<path d="M9.43292 9.88318C11.1182 12.8723 11.6057 15.767 10.133 19.0783C8.92473 21.7897 3.82215 32.9517 2.74874 35.7241C2.225 37.0798 1.90868 38.8355 3.13766 40.0689C3.32433 40.2578 3.55768 40.43 3.81178 40.4912C4.07624 40.5578 4.33552 40.4967 4.56368 40.4023C5.67858 39.9467 6.16602 38.7966 6.57568 37.7243C7.61797 35.0018 12.5598 23.8232 13.6021 21.0952C14.2296 19.4617 14.9244 17.7394 16.4801 16.8337C17.8854 16.0114 19.8351 15.9614 21.1108 14.9891C17.4705 12.5501 13.5139 10.5666 9.42773 9.13867C9.27735 9.2609 9.1892 9.44981 9.43292 9.88318Z" fill="#ABB5DB" fill-opacity="0.56"/>
<path d="M3.5008 40.6689C3.31931 40.58 3.13781 40.4467 2.9615 40.2689C1.90365 39.2077 1.7429 37.5964 2.51036 35.6241C3.32968 33.5128 6.4099 26.69 8.453 22.173C9.09083 20.7673 9.60938 19.6173 9.89977 18.9616C11.2273 15.9781 11.0147 13.2223 9.21528 10.0276C8.87303 9.422 9.05971 9.0942 9.27751 8.92752C9.34492 8.87751 9.42789 8.86085 9.50567 8.88863C13.623 10.3276 17.5744 12.3056 21.2458 14.7669C21.3184 14.8169 21.3598 14.9002 21.365 14.9891C21.365 15.078 21.3287 15.1669 21.2561 15.2169C20.525 15.7781 19.5864 16.0447 18.6789 16.3003C17.9581 16.5059 17.2114 16.717 16.5995 17.0782C15.075 17.9671 14.3905 19.7617 13.8356 21.2063C13.3119 22.573 11.7925 26.1122 10.3198 29.5291C8.85229 32.9461 7.33292 36.4741 6.80918 37.8298C6.34248 39.0466 5.82911 40.18 4.65199 40.6578C4.3253 40.7911 4.02973 40.8245 3.75489 40.7578C3.67192 40.7411 3.58896 40.7078 3.5008 40.6689Z" fill="#ABB5DB" fill-opacity="0.56"/>
<path d="M0.254395 0.382568L0.560342 5.12739L28.0904 19.0563L31.6581 16.2227L0.254395 0.382568Z" fill="white"/>
<path d="M27.9869 19.3007L0.451578 5.3718C0.368609 5.33291 0.311568 5.24401 0.306383 5.144L0.000434835 0.399185C-0.00475072 0.304733 0.0367337 0.210281 0.109331 0.154722C0.181929 0.0991616 0.275269 0.0936056 0.358238 0.132498L31.762 15.9726C31.8449 16.0115 31.8968 16.0949 31.9071 16.1893C31.9175 16.2838 31.876 16.3782 31.8034 16.4338L28.2358 19.2673C28.1684 19.334 28.0698 19.3451 27.9869 19.3007Z" fill="#ABB5DB" fill-opacity="0.56"/>
<path d="M27.7952 17.1671L1.55109 3.98277C1.5096 3.96055 1.48886 3.90499 1.5096 3.86054C1.53034 3.81609 1.57701 3.79387 1.62368 3.81609L27.8678 17.0005C27.9093 17.0227 27.93 17.0783 27.9093 17.1227C27.8885 17.1727 27.8367 17.1894 27.7952 17.1671Z" fill="black"/>
</g>
</svg>
