<svg width="28" height="79" viewBox="0 0 28 79" fill="none" xmlns="http://www.w3.org/2000/svg">
<g filter="url(#filter0_d_57_12698)">
<circle cx="14" cy="61" r="9" fill="white"/>
</g>
<path d="M10.2218 1.16408L10.2331 1.15319C10.3032 1.08445 10.3868 1.03003 10.4789 0.993056C10.571 0.956082 10.6699 0.937278 10.7698 0.937811C10.8696 0.938344 10.9685 0.958204 11.0607 0.996161C11.1528 1.03412 11.2364 1.08943 11.3065 1.15892L13.5548 3.37626C13.5879 3.40911 13.6274 3.43526 13.6709 3.4532C13.7145 3.47114 13.7612 3.4805 13.8084 3.48075C13.8556 3.481 13.9023 3.47215 13.9459 3.45467C13.9894 3.43719 14.0289 3.41146 14.062 3.37897L16.3108 1.18563C16.381 1.117 16.4646 1.06264 16.5568 1.02574C16.649 0.988837 16.7479 0.970085 16.8478 0.970618C16.9477 0.971151 17.0466 0.990959 17.1387 1.02885C17.2309 1.06673 17.3145 1.12198 17.3847 1.19137L17.3955 1.20237C17.5381 1.34345 17.6182 1.53315 17.6182 1.73036C17.6182 1.92757 17.5381 2.11641 17.3955 2.25597L14.283 5.29257C14.2214 5.35291 14.1479 5.40066 14.0669 5.4331C13.9859 5.46555 13.899 5.48201 13.8112 5.48154C13.7234 5.48107 13.6365 5.46368 13.5555 5.43037C13.4745 5.39707 13.401 5.34853 13.3394 5.28753L10.2224 2.21768C10.0798 2.07653 9.99987 1.88686 9.99987 1.68969C9.99987 1.49252 10.0793 1.3037 10.2218 1.16408Z" fill="#34B25F"/>
<defs>
<filter id="filter0_d_57_12698" x="0.7" y="51.7" width="26.6" height="26.6" filterUnits="userSpaceOnUse" color-interpolation-filters="sRGB">
<feFlood flood-opacity="0" result="BackgroundImageFix"/>
<feColorMatrix in="SourceAlpha" type="matrix" values="0 0 0 0 0 0 0 0 0 0 0 0 0 0 0 0 0 0 127 0" result="hardAlpha"/>
<feOffset dy="4"/>
<feGaussianBlur stdDeviation="2.15"/>
<feComposite in2="hardAlpha" operator="out"/>
<feColorMatrix type="matrix" values="0 0 0 0 0.313726 0 0 0 0 0.282353 0 0 0 0 0.898039 0 0 0 0.21 0"/>
<feBlend mode="normal" in2="BackgroundImageFix" result="effect1_dropShadow_57_12698"/>
<feBlend mode="normal" in="SourceGraphic" in2="effect1_dropShadow_57_12698" result="shape"/>
</filter>
</defs>
</svg>
