<svg width="28" height="26" viewBox="0 0 28 26" fill="none" xmlns="http://www.w3.org/2000/svg">
<g clip-path="url(#clip0_57_12644)">
<path d="M7.2633 22.5845C6.6806 19.0509 6.11393 15.6206 5.52588 12.0585C7.82106 13.1401 9.77053 12.7641 11.6808 11.4205C13.3469 10.248 15.5495 10.4761 17.1229 11.8072C17.2869 11.9462 17.4277 12.1689 17.4793 12.3792C18.1796 15.1591 19.0582 16.1801 21.8095 17.3028C21.5422 18.9066 21.2856 20.5353 20.9809 22.1551C20.9488 22.3262 20.6334 22.5649 20.4481 22.5667C16.0894 22.5881 11.7325 22.5845 7.2633 22.5845Z" fill="#34B25F"/>
<path d="M21.8614 15.834L21.8621 15.8342C23.548 16.3532 25.0339 15.9752 26.2366 14.694C26.8838 14.0039 27.2772 13.2734 27.4291 12.5127C27.5808 11.7533 27.4988 10.9293 27.1406 10.0392L21.8614 15.834ZM21.8614 15.834C20.0813 15.2891 19.1022 14.0184 18.8144 12.1756C18.7343 11.6624 18.7858 11.0701 18.9527 10.5754L18.953 10.5747M21.8614 15.834L18.953 10.5747M18.953 10.5747C19.8482 7.9082 21.4346 5.62941 23.1265 3.24036M18.953 10.5747L23.1265 3.24036M23.1265 3.24036C24.7222 5.46222 26.1653 7.61701 27.1406 10.0391L23.1265 3.24036Z" stroke="#34B25F"/>
<path d="M18.9566 7.02614C18.4024 8.37331 17.8892 9.62069 17.3529 10.9215C17.303 10.9055 17.1568 10.8859 17.0464 10.8164C14.9579 9.49952 12.9086 9.59396 10.9057 10.9964C9.26806 12.1422 7.57519 12.3008 5.83421 11.2708C5.58829 11.1247 5.34416 10.82 5.28358 10.5473C5.07509 9.59575 4.95926 8.62279 4.78284 7.66231C4.69196 7.1687 4.91293 7.01189 5.35664 7.02436C5.56335 7.02971 5.77184 7.02436 5.97855 7.02436C10.2731 7.02614 14.5694 7.02614 18.9566 7.02614Z" fill="#34B25F"/>
<path d="M7.40723 23.3081C11.8711 23.3081 16.2743 23.3081 20.7934 23.3081C20.7025 23.8712 20.7168 24.4307 20.5029 24.8816C20.3621 25.1774 19.8953 25.4928 19.5692 25.4981C15.9268 25.5409 12.2845 25.5249 8.64035 25.5284C8.03983 25.5284 7.69591 25.2344 7.59612 24.6571C7.52305 24.224 7.47494 23.7892 7.40723 23.3081Z" fill="#34B25F"/>
<path d="M25.9888 21.3552C25.6843 21.6649 25.2333 22.1236 24.9058 22.4575C24.5909 22.134 24.1353 21.6649 23.8066 21.3275C24.1088 21.0271 24.5644 20.5753 24.9058 20.2356C25.2056 20.5464 25.6589 21.0155 25.9888 21.3552Z" fill="#34B25F"/>
</g>
<path d="M2.18212 11.8325C1.87764 12.1422 1.42668 12.6009 1.09913 12.9348C0.784272 12.6113 0.328702 12.1422 0 11.8048C0.302175 11.5044 0.757745 11.0526 1.09913 10.7129C1.399 11.0237 1.85227 11.4928 2.18212 11.8325Z" fill="#34B25F"/>
<path d="M9.91943 1.11963C9.61495 1.42929 9.16399 1.888 8.83644 2.22192C8.52158 1.8984 8.06601 1.42929 7.7373 1.0919C8.03948 0.791482 8.49505 0.339701 8.83644 0C9.13631 0.310815 9.58957 0.779927 9.91943 1.11963Z" fill="#34B25F"/>
<path d="M26.1872 11.1593C25.7519 11.9086 25.4053 12.6959 24.8937 13.3241C24.4048 13.9253 23.7529 14.3784 23.1443 14.854C23.0412 14.9347 22.7957 14.7979 22.6162 14.7598C22.6533 14.5601 22.6286 14.2461 22.7338 14.181C23.9489 13.4317 24.7926 12.3505 25.327 10.9552C25.3806 10.8183 25.6467 10.7129 25.8117 10.7129C25.9149 10.7129 26.018 10.9462 26.1872 11.1593Z" fill="#34B25F"/>
<defs>
<clipPath id="clip0_57_12644">
<rect width="23.2387" height="23.146" fill="white" transform="translate(4.76123 2.38062)"/>
</clipPath>
</defs>
</svg>
