<svg width="50" height="47" viewBox="0 0 50 47" fill="none" xmlns="http://www.w3.org/2000/svg">
<g opacity="0.2">
<path d="M0.587356 20.4627C-0.00140094 20.8827 -0.178028 21.6564 0.197305 22.1942L13.908 41.8012C14.2833 42.3391 15.0708 42.4422 15.6669 42.0222L44.5086 21.8185C45.0974 21.4058 45.274 20.6322 44.8987 20.0943L31.188 0.479961C30.8127 -0.0579222 30.0252 -0.161078 29.4365 0.258913L0.587356 20.4627ZM40.3211 19.9174C40.6081 20.3301 40.4536 20.9416 39.9826 21.2732L16.6972 37.5865C16.2189 37.9255 15.5933 37.8592 15.3063 37.4465L4.76753 22.3637C4.48051 21.9511 4.63506 21.3395 5.11343 21.0079L28.3914 4.69461C28.8698 4.36304 29.488 4.42198 29.7824 4.83461L40.3211 19.9174Z" fill="#ABB5DB" fill-opacity="0.56"/>
<path d="M16.138 46.7525L48.7699 23.8888C49.4396 23.4172 49.5794 22.4593 49.079 21.7446L48.1664 20.4404L13.1133 45.0062L14.0259 46.3104C14.5189 47.0251 15.4683 47.2167 16.138 46.7525ZM28.811 35.258L33.6388 31.876C33.8228 31.7507 34.073 31.7949 34.1982 31.9791C34.3306 32.1633 34.2865 32.4139 34.1025 32.5465L29.2747 35.9285C29.0907 36.0538 28.8405 36.0096 28.7153 35.8254C28.5902 35.6338 28.6344 35.3833 28.811 35.258Z" fill="#ABB5DB" fill-opacity="0.56"/>
</g>
</svg>
