<svg width="194" height="207" viewBox="0 0 194 207" fill="none" xmlns="http://www.w3.org/2000/svg">
<g filter="url(#filter0_d_57_12481)">
<path d="M29 26C29 23.2386 31.2386 21 34 21H156C158.761 21 161 23.2386 161 26V161C161 163.761 158.761 166 156 166H34C31.2386 166 29 163.761 29 161V26Z" fill="white"/>
<path d="M29 26C29 23.2386 31.2386 21 34 21H156C158.761 21 161 23.2386 161 26V161C161 163.761 158.761 166 156 166H34C31.2386 166 29 163.761 29 161V26Z" stroke="#34B25F" stroke-width="0.5"/>
</g>
<defs>
<filter id="filter0_d_57_12481" x="0.75" y="0.75" width="192.5" height="205.5" filterUnits="userSpaceOnUse" color-interpolation-filters="sRGB">
<feFlood flood-opacity="0" result="BackgroundImageFix"/>
<feColorMatrix in="SourceAlpha" type="matrix" values="0 0 0 0 0 0 0 0 0 0 0 0 0 0 0 0 0 0 127 0" result="hardAlpha"/>
<feOffset dx="2" dy="10"/>
<feGaussianBlur stdDeviation="15"/>
<feComposite in2="hardAlpha" operator="out"/>
<feColorMatrix type="matrix" values="0 0 0 0 0.913295 0 0 0 0 0.909267 0 0 0 0 0.988333 0 0 0 1 0"/>
<feBlend mode="normal" in2="BackgroundImageFix" result="effect1_dropShadow_57_12481"/>
<feBlend mode="normal" in="SourceGraphic" in2="effect1_dropShadow_57_12481" result="shape"/>
</filter>
</defs>
</svg>
