<svg width="196" height="200" viewBox="0 0 196 200" fill="none" xmlns="http://www.w3.org/2000/svg">
<g filter="url(#filter0_d_57_12314)">
<path d="M29 26C29 23.2386 31.2386 21 34 21H158C160.761 21 163 23.2386 163 26V154C163 156.761 160.761 159 158 159H34C31.2386 159 29 156.761 29 154V26Z" fill="white"/>
<path d="M29 26C29 23.2386 31.2386 21 34 21H158C160.761 21 163 23.2386 163 26V154C163 156.761 160.761 159 158 159H34C31.2386 159 29 156.761 29 154V26Z" stroke="#34B25F"/>
</g>
<defs>
<filter id="filter0_d_57_12314" x="0.5" y="0.5" width="195" height="199" filterUnits="userSpaceOnUse" color-interpolation-filters="sRGB">
<feFlood flood-opacity="0" result="BackgroundImageFix"/>
<feColorMatrix in="SourceAlpha" type="matrix" values="0 0 0 0 0 0 0 0 0 0 0 0 0 0 0 0 0 0 127 0" result="hardAlpha"/>
<feOffset dx="2" dy="10"/>
<feGaussianBlur stdDeviation="15"/>
<feComposite in2="hardAlpha" operator="out"/>
<feColorMatrix type="matrix" values="0 0 0 0 0.913295 0 0 0 0 0.909267 0 0 0 0 0.988333 0 0 0 1 0"/>
<feBlend mode="normal" in2="BackgroundImageFix" result="effect1_dropShadow_57_12314"/>
<feBlend mode="normal" in="SourceGraphic" in2="effect1_dropShadow_57_12314" result="shape"/>
</filter>
</defs>
</svg>
