<svg width="375" height="2" viewBox="0 0 375 2" fill="none" xmlns="http://www.w3.org/2000/svg">
<path d="M0 0.521463C0 0.809483 0.233486 1.04297 0.521505 1.04297H374.478C374.766 1.04297 375 0.809483 375 0.521463C375 0.233444 374.767 -4.19617e-05 374.478 -4.19617e-05H0.521511C0.233491 -4.19617e-05 0 0.233444 0 0.521463Z" fill="white"/>
<path d="M0.5 0.521463C0.5 0.533341 0.509628 0.542969 0.521505 0.542969H374.478C374.49 0.542969 374.5 0.533313 374.5 0.521463C374.5 0.509595 374.49 0.499958 374.478 0.499958H0.521511C0.509627 0.499958 0.5 0.509593 0.5 0.521463Z" stroke="#9F9CCE" stroke-opacity="0.43"/>
</svg>
