<svg width="375" height="1" viewBox="0 0 375 1" fill="none" xmlns="http://www.w3.org/2000/svg">
<mask id="path-1-inside-1_57_12258" fill="white">
<path d="M0 0.5C0 0.776142 0.223858 1 0.5 1H374.5C374.776 1 375 0.776142 375 0.5C375 0.223858 374.776 0 374.5 0H0.500008C0.223866 0 0 0.223858 0 0.5Z"/>
</mask>
<path d="M0 0.5C0 0.776142 0.223858 1 0.5 1H374.5C374.776 1 375 0.776142 375 0.5C375 0.223858 374.776 0 374.5 0H0.500008C0.223866 0 0 0.223858 0 0.5Z" fill="white"/>
<path d="M0.5 0H374.5V2H0.5V0ZM374.5 1H0.500008V-1H374.5V1ZM0.500008 1C0.776129 1 1 0.776164 1 0.5H-1C-1 -0.328449 -0.328397 -1 0.500008 -1V1ZM374 0.5C374 0.776142 374.224 1 374.5 1V-1C375.328 -1 376 -0.328427 376 0.5H374ZM374.5 0C374.224 0 374 0.223836 374 0.5H376C376 1.32845 375.328 2 374.5 2V0ZM0.5 2C-0.328427 2 -1 1.32843 -1 0.5H1C1 0.223858 0.776142 0 0.5 0V2Z" fill="#9F9CCE" fill-opacity="0.43" mask="url(#path-1-inside-1_57_12258)"/>
</svg>
