<svg width="41" height="42" viewBox="0 0 41 42" fill="none" xmlns="http://www.w3.org/2000/svg">
<path d="M40.9987 20.9246L39.1554 20.5233C39.0777 17.8825 38.4703 15.3584 37.4322 13.0678L38.9011 11.8568C38.3503 10.7042 37.7005 9.61721 36.959 8.58861L35.2357 9.37648C33.7032 7.35575 31.7822 5.6487 29.5787 4.37936L30.0731 2.50453C28.9855 1.91363 27.8343 1.41757 26.6337 1.03093L25.6873 2.70879C24.5079 2.35863 23.272 2.12519 22.0008 2.01576C20.7295 1.90634 19.4724 1.93552 18.2506 2.08872L17.5868 0.279541C16.3438 0.461917 15.129 0.761015 13.9637 1.16224L14.1615 3.09543C11.7885 3.97813 9.62034 5.34231 7.79117 7.08583L6.21625 6.02075C5.32639 6.91075 4.51421 7.88099 3.78678 8.92418L5.05095 10.3686C3.66672 12.455 2.67092 14.8478 2.18361 17.4448L0.297946 17.5396C0.19201 18.1597 0.114323 18.7944 0.064886 19.4364C0.015449 20.0783 -0.00573822 20.7203 0.0013242 21.3477L1.84462 21.7489C1.9223 24.3897 2.52967 26.9138 3.56785 29.2044L2.09886 30.4154C2.64973 31.568 3.29947 32.655 4.04103 33.6836L5.76426 32.8957C7.2968 34.9165 9.21778 36.6235 11.4213 37.8929L10.9269 39.7677C12.0145 40.3586 13.1657 40.8546 14.3663 41.2413L15.3127 39.5634C16.4921 39.9136 17.728 40.147 18.9992 40.2565C20.2705 40.3659 21.5276 40.3367 22.7494 40.1835L23.4203 42C24.6633 41.8176 25.878 41.5185 27.0433 41.1173L26.8315 39.1841C29.2044 38.3014 31.3726 36.9372 33.2018 35.1937L34.7837 36.2588C35.6736 35.3688 36.4858 34.3985 37.2132 33.3553L35.949 31.9109C37.3333 29.8245 38.3291 27.4317 38.8164 24.8347L40.7021 24.7399C40.808 24.1198 40.8857 23.4851 40.9351 22.8432C40.9846 22.2012 41.0057 21.5592 40.9987 20.9246ZM19.3877 35.2156C11.8168 34.5809 6.18094 27.7673 6.79537 19.9981C7.4098 12.2215 14.0414 6.42927 21.6053 7.05665C29.1762 7.69132 34.812 14.5049 34.1976 22.2814C33.5831 30.058 26.9515 35.8429 19.3877 35.2156Z" fill="#ABB5DB" fill-opacity="0.15"/>
</svg>
