<svg width="13" height="12" viewBox="0 0 13 12" fill="none" xmlns="http://www.w3.org/2000/svg">
<path d="M6.87447 6.20939C6.87447 6.20939 7.03377 6.58753 7.03267 6.58929L6.77955 6.92121H6.22055L5.96743 6.58929C5.96942 6.58353 6.12563 6.20939 6.12563 6.20939C6.14434 6.21184 6.85566 6.21184 6.87447 6.20939ZM0.2587 11.5223H1.69598C1.64593 11.4651 1.58932 11.4002 1.52633 11.3274C1.31888 11.0878 1.11172 10.8451 1.10963 10.8426C1.07371 10.8005 1.05411 10.7484 1.05411 10.6948C1.05411 9.07885 1.59668 7.869 2.05189 7.13862C2.5489 6.3412 3.0468 5.92877 3.06779 5.91167C3.09893 5.88617 3.13635 5.8679 3.17674 5.85861L4.74715 5.4964L5.13441 5.07605C5.05371 4.97219 4.97819 4.85777 4.90864 4.73309C4.85004 4.62795 4.79611 4.51666 4.74715 4.40048C4.72994 4.39648 4.71323 4.39032 4.6974 4.38192C4.02518 4.02635 3.901 3.3799 3.87901 3.19014C3.86469 3.06722 3.84767 2.76794 3.99702 2.64346C4.05931 2.59157 4.12986 2.57115 4.20229 2.57095C3.93056 0.980523 5.06894 0 6.53577 0C8.83074 0 8.85005 1.96026 8.8004 2.57105C8.87194 2.57174 8.94139 2.59235 9.00288 2.64355C9.15223 2.76794 9.13511 3.06732 9.12079 3.19024C9.0988 3.3799 8.97462 4.02635 8.3024 4.38192C8.27702 4.3953 8.24936 4.40283 8.2213 4.40517C8.17325 4.51959 8.12041 4.62912 8.063 4.7326C7.99733 4.85093 7.92609 4.95987 7.85017 5.05944L8.25265 5.4963L9.82306 5.85852C9.86346 5.8679 9.90087 5.88607 9.93201 5.91157C9.95301 5.92877 10.4509 6.3412 10.9478 7.13852C11.403 7.86891 11.9456 9.07875 11.9456 10.6947C11.9456 10.7537 11.9219 10.8107 11.8791 10.8545C11.8767 10.857 11.6402 11.0996 11.4037 11.3391C11.3368 11.4069 11.2763 11.468 11.2221 11.5222H12.7413C12.8842 11.5222 13 11.6292 13 11.7611C13 11.893 12.8842 12 12.7413 12H0.2587C0.115818 12 0 11.893 0 11.7611C0 11.6293 0.115917 11.5223 0.2587 11.5223ZM4.39781 3.04026C4.35522 3.01036 4.30935 2.9828 4.27144 2.96404C4.26249 3.0553 4.26935 3.21301 4.32895 3.39211C4.36398 3.49744 4.42149 3.6232 4.51552 3.74533L4.39781 3.04026ZM8.67114 3.39201C8.73074 3.21281 8.73761 3.05521 8.72866 2.96394C8.69094 2.98261 8.64527 3.01016 8.60229 3.04035L8.48458 3.74524C8.57861 3.6232 8.63612 3.49744 8.67114 3.39201ZM8.03315 2.75484C6.9077 2.66886 6.15857 2.17054 5.75042 1.80236C5.57957 2.08592 5.25212 2.30997 4.94566 2.47002C4.9382 2.54916 4.93392 2.63066 4.93392 2.71508C4.93392 3.35322 5.0965 4.02586 5.36883 4.51422C5.57301 4.88034 5.9321 5.31681 6.48363 5.31681C7.43077 5.31691 8.02071 3.99479 8.03315 2.75484ZM2.97725 11.5251H10.0228V8.86399H7.20551L8.0433 5.9404C7.99235 5.92789 7.94658 5.90151 7.91246 5.86438L7.50391 5.42097C7.20411 5.66534 6.85726 5.79461 6.48363 5.79461C6.11936 5.79461 5.77977 5.66984 5.48425 5.43387L5.08754 5.86438C5.05332 5.90151 5.00755 5.92799 4.9565 5.94049L5.79171 8.86409H2.97734V11.5251H2.97725ZM6.76253 7.11214L6.87924 8.86409H6.12085L6.23767 7.11214H6.76253Z" fill="#5048E5"/>
</svg>
