<svg width="41" height="40" viewBox="0 0 41 40" fill="none" xmlns="http://www.w3.org/2000/svg">
<path d="M40.9987 19.7937L39.1554 19.409C39.0777 16.8771 38.4703 14.4571 37.4322 12.2609L38.9011 11.0998C38.3503 9.99475 37.7005 8.95261 36.959 7.96643L35.2357 8.72181C33.7032 6.7844 31.7822 5.14775 29.5787 3.93076L30.0731 2.13324C28.9855 1.56671 27.8343 1.0911 26.6337 0.720406L25.6873 2.32908C24.5079 1.99336 23.272 1.76954 22.0008 1.66463C20.7295 1.55971 19.4724 1.58769 18.2506 1.73457L17.5868 0C16.3438 0.174856 15.129 0.461619 13.9637 0.846302L14.1615 2.69977C11.7885 3.54607 9.62034 4.854 7.79117 6.52562L6.21625 5.50446C5.32639 6.35775 4.51421 7.28799 3.78678 8.28816L5.05095 9.67302C3.66672 11.6734 2.67092 13.9675 2.18361 16.4574L0.297946 16.5483C0.19201 17.1429 0.114323 17.7514 0.064886 18.3668C0.015449 18.9823 -0.00573822 19.5978 0.0013242 20.1993L1.84462 20.584C1.9223 23.1159 2.52967 25.5359 3.56785 27.7321L2.09886 28.8932C2.64973 29.9983 3.29947 31.0404 4.04103 32.0266L5.76426 31.2712C7.2968 33.2086 9.21778 34.8453 11.4213 36.0623L10.9269 37.8598C12.0145 38.4263 13.1657 38.9019 14.3663 39.2726L15.3127 37.6639C16.4921 37.9996 17.728 38.2235 18.9992 38.3284C20.2705 38.4333 21.5276 38.4053 22.7494 38.2584L23.4203 40C24.6633 39.8251 25.878 39.5384 27.0433 39.1537L26.8315 37.3002C29.2044 36.4539 31.3726 35.146 33.2018 33.4744L34.7837 34.4955C35.6736 33.6422 36.4858 32.712 37.2132 31.7118L35.949 30.327C37.3333 28.3266 38.3291 26.0325 38.8164 23.5426L40.7021 23.4517C40.808 22.8571 40.8857 22.2486 40.9351 21.6332C40.9846 21.0177 41.0057 20.4022 40.9987 19.7937ZM19.3877 33.4954C11.8168 32.8869 6.18094 26.3543 6.79537 18.9054C7.4098 11.4496 14.0414 5.89614 21.6053 6.49764C29.1762 7.10614 34.812 13.6387 34.1976 21.0946C33.5831 28.5504 26.9515 34.0969 19.3877 33.4954Z" fill="#ABB5DB" fill-opacity="0.15"/>
</svg>
